<svg width="3000" height="2955" viewBox="0 0 3000 2955" fill="none" xmlns="http://www.w3.org/2000/svg">
<path d="M2705.35 1210.08C2688.61 1393.37 2689.58 1580.38 2690.52 1760.14C2690.56 1768.45 2690.61 1776.73 2690.65 1785C2691.59 1972.36 2691.58 2151.22 2670.32 2309.08C2649.05 2466.94 2606.53 2603.75 2522.47 2707.03C2438.42 2810.3 2312.81 2880.12 2125.23 2903.91C1619.84 2968.03 1071.03 2875.31 657.781 2666.33C244.522 2457.35 -33.0229 2132.19 3.7663 1731.47C43.8013 1295.4 140.2 909.087 337.856 613.221C535.498 317.377 834.409 111.927 1279.57 37.6156C1835.03 -55.1091 2191.43 30.5178 2408.97 242.967C2626.52 455.429 2705.35 794.858 2705.35 1210.08Z" stroke="#FFEBEB"/>
<path d="M2617.92 1182.55C2605.81 1315.1 2599.38 1445.25 2593.17 1570.66C2591.1 1612.54 2589.06 1653.88 2586.84 1694.61C2577.97 1857.33 2566.28 2010.22 2538.89 2147.76C2511.5 2285.3 2468.42 2407.46 2396.75 2508.73C2325.09 2610 2224.85 2690.42 2083.1 2744.44C1644.39 2911.64 1082.31 2810.46 666.5 2582.88C458.599 2469.09 287.309 2323.72 186.297 2164.56C85.2934 2005.4 54.5699 1832.48 127.72 1663.49C207.943 1478.16 260.985 1301.46 308.247 1138.53C311.957 1125.74 315.632 1113.03 319.281 1100.41C362.12 952.288 401.471 816.223 454.087 696.189C511.181 565.94 583.88 454.597 693.567 367.251C803.254 279.904 949.966 216.525 1155.13 182.264C1667.14 96.7606 2032.82 155.516 2270.49 331.247C2508.13 506.962 2617.91 799.725 2617.92 1182.55Z" stroke="#FFEBEB"/>
<path d="M2594.91 1103.74C2582.94 1234.83 2576.57 1363.54 2570.44 1487.56C2568.39 1528.97 2566.37 1569.85 2564.17 1610.13C2555.4 1771.05 2543.84 1922.25 2516.76 2058.26C2489.68 2194.27 2447.06 2315.08 2376.2 2415.23C2305.33 2515.38 2206.2 2594.9 2066.02 2648.32C1632.18 2813.67 1162.99 2728.05 795.13 2510.23C427.26 2292.4 160.822 1942.41 132.373 1579.12C94.0531 1089.79 195.202 745.676 407.302 506.95C619.411 268.213 942.555 134.791 1348.41 67.0162C1854.75 -17.5402 2166.31 52.4564 2351.31 238.064C2536.32 423.69 2594.9 725.09 2594.91 1103.74Z" stroke="#FFEBEB"/>
<path d="M2594.91 1278.25C2638.06 1604.34 2622.93 1899.03 2534.44 2136.05C2445.96 2373.05 2284.12 2552.4 2033.81 2647.86C1646.49 2795.56 1249.85 2721.6 943.689 2529.55C637.513 2337.49 421.867 2027.37 396.468 1702.84C362.251 1265.65 396.887 900.358 530.795 658.234C597.741 537.186 689.494 446.93 809.864 393.848C930.239 340.764 1079.27 324.838 1260.81 352.53C1366.44 368.644 1476.08 372.745 1585.19 376.827C1616.34 377.992 1647.45 379.156 1678.41 380.597C1817.82 387.086 1954.23 399.202 2078.12 442.393C2201.99 485.578 2313.34 559.832 2402.65 690.622C2491.97 821.423 2559.25 1008.8 2594.91 1278.25Z" stroke="#FFEBEB"/>
<path d="M2190.64 2292.1C2061.61 2351.66 1936.94 2424.51 1817.11 2494.53C1811.58 2497.77 1806.05 2500.99 1800.54 2504.21C1675.62 2577.17 1556.04 2646.21 1442.28 2692.93C1328.53 2739.65 1220.66 2764.02 1119.18 2747.69C1017.72 2731.36 922.566 2674.34 834.254 2558.12C596.289 2244.96 446.428 1842.22 426.627 1485.25C406.825 1128.26 517.089 817.218 799.169 687.151C1106.2 545.581 1401.7 460.914 1675.8 478.859C1949.89 496.803 2202.62 617.343 2424.15 886.292C2700.57 1221.9 2780.88 1493.22 2722.82 1720.64C2664.76 1948.09 2468.26 2131.81 2190.64 2292.1Z" stroke="#FFEBEB"/>
<path d="M2175.78 2223.77C2082.54 2266.8 1993.09 2312.7 1906.91 2356.92C1878.13 2371.69 1849.72 2386.27 1821.65 2400.5C1709.51 2457.33 1602.85 2508.48 1500.38 2543.21C1397.92 2577.93 1299.67 2596.22 1204.34 2587.33C1109.02 2578.45 1016.59 2542.39 925.746 2468.39C644.584 2239.36 495.038 1824.25 486.45 1458.24C482.155 1275.24 513.1 1104.57 580.407 975.601C647.706 846.647 751.342 759.414 892.464 743.181C1047.29 725.372 1185.85 692.701 1312.96 661.478C1322.94 659.027 1332.85 656.585 1342.69 654.16C1458.21 625.688 1564.31 599.536 1664.83 588.442C1773.9 576.405 1876.35 582.103 1977.06 621.798C2077.78 661.494 2176.79 735.204 2278.93 859.264C2533.86 1168.89 2635.86 1436.22 2610.27 1662.99C2584.69 1889.74 2431.53 2076.11 2175.78 2223.77Z" stroke="#FFEBEB"/>
<path d="M2219.48 2178.02C2127.26 2220.59 2038.78 2266 1953.53 2309.75C1925.07 2324.35 1896.96 2338.78 1869.19 2352.85C1758.26 2409.07 1652.76 2459.68 1551.4 2494.03C1450.05 2528.39 1352.88 2546.49 1258.59 2537.72C1164.31 2528.95 1072.9 2493.32 983.062 2420.16C705.01 2193.73 581.004 1846.82 584.485 1516.69C587.966 1186.54 718.938 873.282 950.697 714.102C1262.9 499.669 1531.92 434.581 1773.35 484.365C2014.79 534.152 2228.76 698.846 2430.81 944.217C2682.9 1250.35 2756.44 1485.76 2703.87 1681.1C2651.3 1876.46 2472.53 2031.92 2219.48 2178.02Z" stroke="#FFEBEB"/>
<path d="M2102.61 2245.27C1901.37 2399.96 1698.6 2503.53 1506.03 2535.75C1313.47 2567.97 1131.11 2528.87 970.616 2398.19C722.267 2195.97 618.442 1902.01 628.483 1623.02C638.524 1344.02 762.437 1080.07 969.478 937.87C1248.43 746.283 1505.92 628.535 1719.44 624.736C1826.18 622.837 1921.93 649.416 2003.9 709.481C2085.87 769.548 2154.09 863.133 2205.73 995.306C2235.78 1072.23 2275.41 1147.2 2314.84 1221.8C2326.1 1243.1 2337.34 1264.37 2348.34 1285.64C2397.87 1381.45 2442.48 1477.41 2461.49 1576.98C2480.49 1676.52 2473.89 1779.68 2421.01 1889.89C2368.12 2000.12 2268.91 2117.44 2102.61 2245.27Z" stroke="#FFEBEB"/>
<path d="M854.131 1688.88C862.915 1592.69 862.404 1494.54 861.911 1400.21C861.889 1395.85 861.866 1391.5 861.844 1387.16C861.352 1288.83 861.353 1194.99 872.508 1112.17C883.662 1029.34 905.963 957.599 950.026 903.446C994.076 849.308 1059.92 812.693 1158.29 800.211C1423.4 766.568 1711.29 815.22 1928.06 924.865C2144.85 1034.52 2290.36 1205.08 2271.07 1415.23C2250.07 1644.06 2199.49 1846.74 2095.82 2001.96C1992.17 2157.16 1835.4 2264.94 1601.9 2303.93C1310.51 2352.58 1123.61 2307.64 1009.56 2196.23C895.49 2084.8 854.134 1906.76 854.131 1688.88Z" stroke="#FFEBEB"/>
<path d="M897.848 1702.79C904.207 1633.28 907.588 1565.01 910.846 1499.25C911.934 1477.29 913.008 1455.6 914.175 1434.25C918.836 1348.91 924.973 1268.74 939.359 1196.62C953.744 1124.51 976.371 1060.48 1013.99 1007.4C1051.61 954.33 1104.24 912.185 1178.67 883.868C1409.06 796.213 1704.28 849.251 1922.69 968.586C2031.89 1028.25 2121.85 1104.46 2174.88 1187.89C2227.92 1271.31 2244.03 1361.92 2205.64 1450.46C2163.49 1547.67 2135.62 1640.36 2110.79 1725.81C2108.84 1732.51 2106.91 1739.17 2104.99 1745.79C2082.49 1823.48 2061.82 1894.82 2034.18 1957.76C2004.2 2026.05 1966.02 2084.41 1908.44 2130.18C1850.85 2175.96 1773.82 2209.19 1666.06 2227.15C1397.1 2271.99 1205.06 2241.17 1080.28 2149.06C955.513 2056.97 897.852 1903.52 897.848 1702.79Z" stroke="#FFEBEB"/>
<path d="M911.653 1744.66C917.938 1675.85 921.28 1608.28 924.5 1543.18C925.575 1521.45 926.637 1499.98 927.79 1478.84C932.397 1394.37 938.463 1315.01 952.681 1243.63C966.898 1172.25 989.262 1108.87 1026.45 1056.33C1063.63 1003.8 1115.64 962.086 1189.2 934.058C1416.92 847.291 1663.2 892.216 1856.3 1006.53C2049.41 1120.86 2189.24 1304.52 2204.17 1495.13C2224.29 1751.96 2171.18 1932.53 2059.88 2057.78C1948.56 2183.04 1778.95 2253.07 1565.87 2288.64C1300.03 2333.03 1136.54 2296.27 1039.49 2198.92C942.418 2101.55 911.656 1943.42 911.653 1744.66Z" stroke="#FFEBEB"/>
<path d="M910.075 1653.27C887.378 1482.05 895.341 1327.34 941.873 1202.92C988.4 1078.52 1073.49 984.387 1205.1 934.286C1408.77 856.75 1617.35 895.573 1778.36 996.394C1939.38 1097.22 2052.77 1260.01 2066.12 1430.35C2084.12 1659.93 2065.9 1851.7 1995.49 1978.78C1960.29 2042.31 1912.06 2089.67 1848.79 2117.52C1785.52 2145.37 1707.16 2153.74 1611.69 2139.2C1556.11 2130.73 1498.42 2128.58 1441.02 2126.44C1424.63 2125.82 1408.27 2125.21 1391.99 2124.46C1318.65 2121.05 1246.92 2114.69 1181.78 2092.02C1116.66 2069.35 1058.13 2030.39 1011.17 1961.75C964.217 1893.11 928.83 1794.75 910.075 1653.27Z" stroke="#FFEBEB"/>
<path d="M1106.66 1708.05C1095.35 1642.42 1077.49 1577.16 1060.34 1514.44C1059.55 1511.55 1058.75 1508.65 1057.97 1505.77C1040.09 1440.38 1023.36 1377.91 1016.01 1320.78C1008.65 1263.66 1010.7 1211.94 1030.35 1168.06C1049.99 1124.2 1087.25 1088.1 1150.47 1062.26C1320.91 992.589 1521.18 973.642 1684.99 1007.98C1848.82 1042.32 1976.03 1129.91 2000.67 1273.19C2027.51 1429.29 2030.01 1573.23 1988.71 1695.04C1947.42 1816.82 1862.33 1916.52 1713.91 1984.1C1528.65 2068.46 1396.29 2071.85 1300.56 2018.04C1204.81 1964.23 1145.54 1853.11 1106.66 1708.05Z" stroke="#FFEBEB"/>
<path d="M1138.6 1708.87C1130.44 1661.47 1120.52 1615.44 1110.96 1571.1C1107.77 1556.29 1104.62 1541.67 1101.59 1527.25C1089.48 1469.63 1079.28 1415.2 1076 1364.66C1072.72 1314.11 1076.38 1267.49 1091.96 1225.48C1107.54 1183.48 1135.05 1146.07 1179.55 1113.96C1317.32 1014.55 1523.35 997.159 1690.07 1037.59C1773.42 1057.8 1846.89 1092.45 1897.07 1138.48C1947.24 1184.5 1974.1 1241.87 1964.32 1307.58C1953.58 1379.8 1951.55 1446.46 1950.24 1507.75C1950.14 1512.56 1950.04 1517.34 1949.95 1522.08C1948.81 1577.8 1947.76 1628.95 1940.58 1675.76C1932.79 1726.53 1917.78 1772.15 1887.61 1812.86C1857.44 1853.58 1812.08 1889.42 1743.53 1920.6C1572.4 1998.43 1439.06 2012.17 1339.58 1973.17C1240.13 1934.18 1174.39 1842.41 1138.6 1708.87Z" stroke="#FFEBEB"/>
<path d="M1154.16 1735.36C1146.04 1688.34 1136.19 1642.67 1126.7 1598.68C1123.53 1583.99 1120.4 1569.48 1117.39 1555.18C1105.36 1498.01 1095.22 1444.01 1091.93 1393.87C1088.64 1343.74 1092.2 1297.5 1107.56 1255.85C1122.92 1214.21 1150.07 1177.13 1194.02 1145.33C1330.09 1046.86 1502.05 1032.89 1651.02 1074.68C1800 1116.47 1925.88 1214 1969.86 1338.41C2029.15 1506.1 2026.05 1635.97 1974.35 1739.32C1922.64 1842.69 1822.26 1919.63 1686.76 1981.37C1517.71 2058.39 1402.34 2063.02 1320.39 2015.44C1238.41 1967.85 1189.68 1867.92 1154.16 1735.36Z" stroke="#FFEBEB"/>
<path d="M1137.98 1674C1092.34 1564.13 1070.07 1459.78 1078.88 1368.72C1087.68 1277.67 1127.56 1199.89 1206.25 1143.08C1328.05 1055.17 1473.85 1043.78 1599.04 1082.12C1724.23 1120.46 1828.75 1208.53 1867.99 1319.44C1920.91 1468.99 1942.95 1599.82 1918.73 1696.91C1906.62 1745.44 1882.95 1785.53 1845.8 1815.33C1808.65 1845.13 1757.98 1864.68 1691.82 1872.04C1653.28 1876.33 1614.45 1885.2 1575.83 1894.02C1564.81 1896.53 1553.8 1899.05 1542.83 1901.45C1493.37 1912.27 1444.48 1920.83 1397.07 1917.38C1349.68 1913.92 1303.77 1898.45 1260.29 1861.18C1216.8 1823.9 1175.7 1764.79 1137.98 1674Z" stroke="#FFEBEB"/>
<path d="M1220.46 1648.15C1183.77 1559.83 1165.87 1475.96 1172.95 1402.78C1180.03 1329.61 1212.07 1267.11 1275.31 1221.46C1373.19 1150.81 1490.37 1141.65 1590.98 1172.47C1691.6 1203.28 1775.59 1274.06 1807.13 1363.19C1849.67 1483.41 1867.38 1588.56 1847.91 1666.58C1838.18 1705.57 1819.17 1737.78 1789.32 1761.72C1759.48 1785.67 1718.76 1801.37 1665.59 1807.29C1634.6 1810.74 1603.37 1817.87 1572.33 1824.96C1563.47 1826.98 1554.62 1829 1545.8 1830.93C1506.05 1839.63 1466.75 1846.51 1428.66 1843.73C1390.58 1840.96 1353.69 1828.53 1318.76 1798.58C1283.81 1768.63 1250.78 1721.12 1220.46 1648.15Z" stroke="#FFEBEB"/>
<path d="M1294.49 1589.2C1268.63 1526.96 1256.03 1467.88 1261.01 1416.33C1266 1364.8 1288.56 1320.79 1333.09 1288.65C1402.04 1238.88 1484.58 1232.43 1555.45 1254.14C1626.34 1275.85 1685.49 1325.7 1707.7 1388.46C1737.68 1473.19 1750.15 1547.26 1736.44 1602.21C1729.59 1629.67 1716.2 1652.34 1695.19 1669.19C1674.19 1686.04 1645.52 1697.11 1608.06 1701.27C1586.21 1703.71 1564.19 1708.73 1542.31 1713.73C1536.07 1715.16 1529.84 1716.58 1523.62 1717.94C1495.6 1724.07 1467.92 1728.92 1441.1 1726.96C1414.29 1725 1388.32 1716.25 1363.73 1695.17C1339.12 1674.08 1315.85 1640.62 1294.49 1589.2Z" stroke="#FFEBEB"/>
<path d="M1262.21 1490.52C1254.98 1436.08 1257.52 1386.92 1272.32 1347.41C1287.1 1307.91 1314.13 1278.04 1355.94 1262.14C1420.69 1237.52 1487 1249.84 1538.2 1281.87C1589.4 1313.9 1625.43 1365.61 1629.68 1419.67C1635.41 1492.69 1629.6 1553.61 1607.23 1593.95C1596.05 1614.11 1580.74 1629.12 1560.67 1637.95C1540.59 1646.77 1515.71 1649.44 1485.35 1644.82C1467.63 1642.12 1449.23 1641.44 1430.95 1640.75C1425.74 1640.56 1420.53 1640.36 1415.35 1640.12C1392 1639.04 1369.2 1637.02 1348.51 1629.82C1327.83 1622.63 1309.25 1610.28 1294.35 1588.51C1279.43 1566.73 1268.18 1535.49 1262.21 1490.52Z" stroke="#FFEBEB"/>
<path d="M1327.41 1528.11C1320.18 1473.67 1322.72 1424.51 1337.51 1385C1352.3 1345.5 1379.33 1315.63 1421.14 1299.73C1485.94 1275.09 1541.99 1280.66 1582.88 1305.86C1623.78 1331.06 1649.6 1375.93 1653.84 1430.04C1659.57 1503.08 1658.06 1574.05 1639.96 1624.44C1630.91 1649.62 1617.72 1669.62 1599.27 1682.17C1580.82 1694.72 1557.04 1699.88 1526.72 1695.26C1512.34 1693.08 1498.08 1691.89 1484.22 1690.74C1476.15 1690.06 1468.22 1689.4 1460.47 1688.56C1439.37 1686.28 1419.56 1682.65 1401.85 1673.87C1366.49 1656.32 1339.35 1618.09 1327.41 1528.11Z" stroke="#FFEBEB"/>
<path d="M1376.7 1489.44C1371.93 1453.45 1373.61 1420.98 1383.37 1394.89C1393.13 1368.81 1410.95 1349.1 1438.53 1338.61C1481.3 1322.33 1518.28 1326.01 1545.25 1342.64C1572.22 1359.27 1589.25 1388.89 1592.06 1424.63C1595.84 1472.92 1594.84 1519.82 1582.89 1553.1C1576.92 1569.73 1568.22 1582.92 1556.07 1591.19C1543.92 1599.46 1528.26 1602.87 1508.25 1599.82C1498.75 1598.37 1489.32 1597.59 1480.15 1596.82C1474.82 1596.38 1469.59 1595.94 1464.47 1595.39C1450.53 1593.88 1437.47 1591.48 1425.8 1585.69C1402.51 1574.12 1384.59 1548.91 1376.7 1489.44Z" stroke="#FFEBEB"/>
</svg>
