<svg width="121" height="23" viewBox="0 0 121 23" fill="none" xmlns="http://www.w3.org/2000/svg">
<path d="M22.0016 8.69013C52.3651 4.68615 83.0513 6.02411 113.391 2.69013C138.207 -0.0369309 63.5746 6.08196 38.6683 7.80124C27.7393 8.55567 16.747 8.70706 5.83497 9.69013C-0.0265887 10.2182 1.35612 10.4259 6.44608 10.579C11.7162 10.7375 25.4521 10.6901 30.0016 10.6901C54.1772 10.6901 78.0135 9.7209 102.113 8.35679C121.859 7.23906 62.818 13.0631 43.335 16.4679C28.1811 19.1162 74.2268 14.0859 89.0016 9.80124C104.107 5.42074 57.6622 12.966 42.2239 15.9679C41.1353 16.1796 35.0228 17.3842 40.0016 18.6901C48.5139 20.9229 57.3647 19.6901 66.0016 19.6901" stroke="#FCD34D" stroke-width="4" stroke-linecap="round" stroke-linejoin="round"/>
</svg>
