<svg width="133" height="66" viewBox="0 0 133 66" fill="none" xmlns="http://www.w3.org/2000/svg">
<rect x="60" y="45" width="73" height="21" rx="4" fill="#FFD600"/>
<path d="M22.176 14.792C22.176 14.072 22.356 13.532 22.716 13.172C23.076 12.788 23.52 12.596 24.048 12.596C24.576 12.596 25.032 12.764 25.416 13.1V32.756H28.62C29.028 32.756 29.34 32.864 29.556 33.08C29.796 33.272 29.916 33.524 29.916 33.836C29.916 34.148 29.808 34.412 29.592 34.628H25.416V41.468C25.416 42.188 25.236 42.728 24.876 43.088C24.516 43.472 24.072 43.664 23.544 43.664C23.016 43.664 22.56 43.496 22.176 43.16V34.628H11.628V36.644C11.628 39.644 11.172 41.888 10.26 43.376C9.348 44.864 7.896 45.608 5.904 45.608C4.704 45.608 3.768 45.224 3.096 44.456C2.424 43.688 2.088 42.596 2.088 41.18C2.088 38.924 2.7 37.088 3.924 35.672C5.172 34.256 6.66 33.38 8.388 33.044V17.96C8.388 17.24 8.568 16.7 8.928 16.34C9.288 15.956 9.732 15.764 10.26 15.764C10.788 15.764 11.244 15.932 11.628 16.268V32.792H22.176V14.792ZM3.744 41.288C3.744 42.2 3.936 42.896 4.32 43.376C4.728 43.856 5.292 44.096 6.012 44.096C6.756 44.096 7.332 43.58 7.74 42.548C8.148 41.516 8.364 39.644 8.388 36.932V34.916C7.02 35.228 5.904 35.936 5.04 37.04C4.176 38.144 3.744 39.56 3.744 41.288ZM42.192 25.772C42.504 25.076 42.996 24.728 43.668 24.728C44.364 24.728 44.88 24.896 45.216 25.232V35.564C45.216 36.932 45.432 37.964 45.864 38.66C46.296 39.356 46.884 39.704 47.628 39.704C49.884 39.704 51.012 37.364 51.012 32.684C51.036 32.54 51.216 32.468 51.552 32.468C51.984 32.468 52.2 33.104 52.2 34.376C52.2 36.416 51.756 38.048 50.868 39.272C50.004 40.496 48.78 41.108 47.196 41.108C44.772 41.108 43.164 40.04 42.372 37.904C41.916 38.888 41.292 39.668 40.5 40.244C39.708 40.82 38.808 41.108 37.8 41.108C33.6 41.108 31.5 38.36 31.5 32.864C31.5 30.08 32.148 28.028 33.444 26.708C34.764 25.388 36.504 24.728 38.664 24.728C40.32 24.728 41.496 25.076 42.192 25.772ZM35.424 37.292C35.76 38.348 36.144 39.02 36.576 39.308C37.008 39.572 37.584 39.704 38.304 39.704C39.024 39.704 39.804 39.26 40.644 38.372C41.508 37.46 41.94 36.284 41.94 34.844V29.912C41.94 28.784 41.64 27.872 41.04 27.176C40.464 26.48 39.804 26.132 39.06 26.132C38.34 26.132 37.764 26.204 37.332 26.348C36.9 26.492 36.492 26.792 36.108 27.248C35.316 28.112 34.92 29.984 34.92 32.864C34.92 34.76 35.088 36.236 35.424 37.292ZM65.086 27.788C65.878 29.156 66.274 31.004 66.274 33.332C66.274 35.636 65.686 37.508 64.51 38.948C63.358 40.364 61.846 41.072 59.974 41.072C58.87 41.072 57.886 40.688 57.022 39.92C56.182 39.152 55.762 37.928 55.762 36.248C55.762 32.312 57.718 29.372 61.63 27.428C61.006 26.564 60.13 26.132 59.002 26.132C57.898 26.132 56.842 26.684 55.834 27.788C54.826 28.892 54.322 30.548 54.322 32.756V54.176C54.082 54.512 53.662 54.68 53.062 54.68C52.462 54.68 51.982 54.488 51.622 54.104C51.262 53.744 51.082 53.204 51.082 52.484V25.232C51.322 24.896 51.742 24.728 52.342 24.728C52.942 24.728 53.422 24.92 53.782 25.304C54.142 25.664 54.322 26.204 54.322 26.924V27.716C55.57 25.724 57.214 24.728 59.254 24.728C61.318 24.728 62.926 25.304 64.078 26.456C66.598 25.64 69.418 25.232 72.538 25.232C73.186 25.232 73.51 25.496 73.51 26.024L73.294 26.564C70.39 26.564 67.654 26.972 65.086 27.788ZM59.902 39.668C61.87 39.668 62.854 37.712 62.854 33.8C62.854 31.736 62.686 30.116 62.35 28.94C59.182 30.668 57.598 33.14 57.598 36.356C57.598 37.412 57.826 38.228 58.282 38.804C58.738 39.38 59.278 39.668 59.902 39.668ZM70.8398 21.596C70.8398 20.876 71.0198 20.336 71.3798 19.976C71.7398 19.592 72.1958 19.4 72.7478 19.4C73.2998 19.4 73.7438 19.568 74.0798 19.904V25.232H79.0118C79.5158 25.232 79.8398 25.328 79.9838 25.52C80.1518 25.712 80.2358 26.036 80.2358 26.492H74.0798V35.564C74.0798 36.884 74.4518 37.904 75.1958 38.624C75.9638 39.344 76.8398 39.704 77.8238 39.704C79.3118 39.704 80.4038 39.152 81.0998 38.048C81.7958 36.944 82.1438 35.156 82.1438 32.684C82.1918 32.54 82.3718 32.468 82.6838 32.468C83.1158 32.468 83.3318 33.104 83.3318 34.376C83.3318 36.32 82.8398 37.928 81.8558 39.2C80.8958 40.472 79.4078 41.108 77.3918 41.108C75.3758 41.108 73.7798 40.58 72.6038 39.524C71.4278 38.468 70.8398 36.896 70.8398 34.808V21.596ZM82.4825 21.2C82.0745 20.792 81.8705 20.288 81.8705 19.688C81.8705 19.088 82.0745 18.584 82.4825 18.176C82.8905 17.744 83.3945 17.528 83.9945 17.528C84.5945 17.528 85.0985 17.744 85.5065 18.176C85.9385 18.584 86.1545 19.088 86.1545 19.688C86.1545 20.288 85.9385 20.792 85.5065 21.2C85.0985 21.608 84.5945 21.812 83.9945 21.812C83.3945 21.812 82.8905 21.608 82.4825 21.2ZM82.3385 26.924C82.3385 26.204 82.5185 25.664 82.8785 25.304C83.2385 24.92 83.6945 24.728 84.2465 24.728C84.7985 24.728 85.2425 24.896 85.5785 25.232V35.564C85.5785 36.932 85.8425 37.964 86.3705 38.66C86.8985 39.356 87.6185 39.704 88.5305 39.704C89.4425 39.704 90.2945 39.152 91.0865 38.048C91.8785 36.944 92.2745 35.156 92.2745 32.684C92.3225 32.54 92.5025 32.468 92.8145 32.468C93.2465 32.468 93.4625 33.104 93.4625 34.376C93.4625 36.224 92.9585 37.808 91.9505 39.128C90.9425 40.448 89.6585 41.108 88.0985 41.108C86.1545 41.108 84.7025 40.532 83.7425 39.38C82.8065 38.228 82.3385 36.596 82.3385 34.484V26.924ZM107.439 33.62C107.943 33.62 108.195 33.968 108.195 34.664C108.195 35.36 108.051 36.056 107.763 36.752C107.475 37.448 107.055 38.132 106.503 38.804C105.975 39.476 105.219 40.028 104.235 40.46C103.275 40.892 102.183 41.108 100.959 41.108C98.2715 41.108 96.1595 40.436 94.6235 39.092C93.1115 37.724 92.3555 35.732 92.3555 33.116C92.3555 30.476 93.0275 28.424 94.3715 26.96C95.7155 25.472 97.4315 24.728 99.5195 24.728C101.031 24.728 102.135 25.136 102.831 25.952C103.527 26.744 103.875 27.692 103.875 28.796C103.875 29.396 103.695 29.876 103.335 30.236C102.975 30.596 102.627 30.776 102.291 30.776C101.667 30.776 101.259 30.632 101.067 30.344C101.211 29.984 101.283 29.468 101.283 28.796C101.283 28.124 101.055 27.512 100.599 26.96C100.143 26.408 99.5915 26.132 98.9435 26.132C97.8155 26.132 96.9995 26.684 96.4955 27.788C96.0155 28.892 95.7755 30.632 95.7755 33.008C95.7755 35.36 96.2315 37.064 97.1435 38.12C98.0795 39.176 99.3755 39.704 101.031 39.704C102.687 39.704 104.079 39.2 105.207 38.192C106.335 37.16 106.899 35.708 106.899 33.836C106.923 33.692 107.103 33.62 107.439 33.62Z" fill="black"/>
<path d="M71.016 60.144C70.16 60.144 69.384 59.96 68.688 59.592C68 59.216 67.456 58.7 67.056 58.044C66.664 57.38 66.468 56.632 66.468 55.8C66.468 54.968 66.664 54.224 67.056 53.568C67.456 52.904 68 52.388 68.688 52.02C69.384 51.644 70.164 51.456 71.028 51.456C71.756 51.456 72.412 51.584 72.996 51.84C73.588 52.096 74.084 52.464 74.484 52.944L73.236 54.096C72.668 53.44 71.964 53.112 71.124 53.112C70.604 53.112 70.14 53.228 69.732 53.46C69.324 53.684 69.004 54 68.772 54.408C68.548 54.816 68.436 55.28 68.436 55.8C68.436 56.32 68.548 56.784 68.772 57.192C69.004 57.6 69.324 57.92 69.732 58.152C70.14 58.376 70.604 58.488 71.124 58.488C71.964 58.488 72.668 58.156 73.236 57.492L74.484 58.644C74.084 59.132 73.588 59.504 72.996 59.76C72.404 60.016 71.744 60.144 71.016 60.144ZM81.1488 60L79.5288 57.66H79.4328H77.7408V60H75.7968V51.6H79.4328C80.1768 51.6 80.8208 51.724 81.3648 51.972C81.9168 52.22 82.3408 52.572 82.6368 53.028C82.9328 53.484 83.0808 54.024 83.0808 54.648C83.0808 55.272 82.9288 55.812 82.6248 56.268C82.3288 56.716 81.9048 57.06 81.3528 57.3L83.2368 60H81.1488ZM81.1128 54.648C81.1128 54.176 80.9608 53.816 80.6568 53.568C80.3528 53.312 79.9088 53.184 79.3248 53.184H77.7408V56.112H79.3248C79.9088 56.112 80.3528 55.984 80.6568 55.728C80.9608 55.472 81.1128 55.112 81.1128 54.648ZM91.125 58.44V60H84.621V51.6H90.969V53.16H86.553V54.984H90.453V56.496H86.553V58.44H91.125ZM98.2038 58.2H94.3038L93.5598 60H91.5678L95.3118 51.6H97.2318L100.988 60H98.9478L98.2038 58.2ZM97.5918 56.724L96.2598 53.508L94.9278 56.724H97.5918ZM103.177 53.184H100.489V51.6H107.809V53.184H105.121V60H103.177V53.184ZM112.806 60.144C111.934 60.144 111.146 59.956 110.442 59.58C109.746 59.204 109.198 58.688 108.798 58.032C108.406 57.368 108.21 56.624 108.21 55.8C108.21 54.976 108.406 54.236 108.798 53.58C109.198 52.916 109.746 52.396 110.442 52.02C111.146 51.644 111.934 51.456 112.806 51.456C113.678 51.456 114.462 51.644 115.158 52.02C115.854 52.396 116.402 52.916 116.802 53.58C117.202 54.236 117.402 54.976 117.402 55.8C117.402 56.624 117.202 57.368 116.802 58.032C116.402 58.688 115.854 59.204 115.158 59.58C114.462 59.956 113.678 60.144 112.806 60.144ZM112.806 58.488C113.302 58.488 113.75 58.376 114.15 58.152C114.55 57.92 114.862 57.6 115.086 57.192C115.318 56.784 115.434 56.32 115.434 55.8C115.434 55.28 115.318 54.816 115.086 54.408C114.862 54 114.55 53.684 114.15 53.46C113.75 53.228 113.302 53.112 112.806 53.112C112.31 53.112 111.862 53.228 111.462 53.46C111.062 53.684 110.746 54 110.514 54.408C110.29 54.816 110.178 55.28 110.178 55.8C110.178 56.32 110.29 56.784 110.514 57.192C110.746 57.6 111.062 57.92 111.462 58.152C111.862 58.376 112.31 58.488 112.806 58.488ZM124.215 60L122.595 57.66H122.499H120.807V60H118.863V51.6H122.499C123.243 51.6 123.887 51.724 124.431 51.972C124.983 52.22 125.407 52.572 125.703 53.028C125.999 53.484 126.147 54.024 126.147 54.648C126.147 55.272 125.995 55.812 125.691 56.268C125.395 56.716 124.971 57.06 124.419 57.3L126.303 60H124.215ZM124.179 54.648C124.179 54.176 124.027 53.816 123.723 53.568C123.419 53.312 122.975 53.184 122.391 53.184H120.807V56.112H122.391C122.975 56.112 123.419 55.984 123.723 55.728C124.027 55.472 124.179 55.112 124.179 54.648Z" fill="black"/>
</svg>
