<svg width="138" height="137" viewBox="0 0 138 137" fill="none" xmlns="http://www.w3.org/2000/svg">
<rect width="128" height="128" rx="15" fill="#1F2937"/>
<path d="M80.568 25.856C80.568 23.936 81.048 22.496 82.008 21.536C82.968 20.512 84.152 20 85.56 20C86.968 20 88.184 20.448 89.208 21.344V73.76H97.752C98.84 73.76 99.672 74.048 100.248 74.624C100.888 75.136 101.208 75.808 101.208 76.64C101.208 77.472 100.92 78.176 100.344 78.752H89.208V96.992C89.208 98.912 88.728 100.352 87.768 101.312C86.808 102.336 85.624 102.848 84.216 102.848C82.808 102.848 81.592 102.4 80.568 101.504V78.752H52.44V84.128C52.44 92.128 51.224 98.112 48.792 102.08C46.36 106.048 42.488 108.032 37.176 108.032C33.976 108.032 31.48 107.008 29.688 104.96C27.896 102.912 27 100 27 96.224C27 90.208 28.632 85.312 31.896 81.536C35.224 77.76 39.192 75.424 43.8 74.528V34.304C43.8 32.384 44.28 30.944 45.24 29.984C46.2 28.96 47.384 28.448 48.792 28.448C50.2 28.448 51.416 28.896 52.44 29.792V73.856H80.568V25.856ZM31.416 96.512C31.416 98.944 31.928 100.8 32.952 102.08C34.04 103.36 35.544 104 37.464 104C39.448 104 40.984 102.624 42.072 99.872C43.16 97.12 43.736 92.128 43.8 84.896V79.52C40.152 80.352 37.176 82.24 34.872 85.184C32.568 88.128 31.416 91.904 31.416 96.512Z" fill="white"/>
<circle cx="115.5" cy="114.5" r="21" fill="#FCD34D" stroke="#1F2937" stroke-width="3"/>
</svg>
