<svg width="80" height="122" viewBox="0 0 80 122" fill="none" xmlns="http://www.w3.org/2000/svg">
<path d="M59.136 39.112C59.136 37.192 59.616 35.752 60.576 34.792C61.536 33.768 62.72 33.256 64.128 33.256C65.536 33.256 66.752 33.704 67.776 34.6V87.016H76.32C77.408 87.016 78.24 87.304 78.816 87.88C79.456 88.392 79.776 89.064 79.776 89.896C79.776 90.728 79.488 91.432 78.912 92.008H67.776V110.248C67.776 112.168 67.296 113.608 66.336 114.568C65.376 115.592 64.192 116.104 62.784 116.104C61.376 116.104 60.16 115.656 59.136 114.76V92.008H31.008V97.384C31.008 105.384 29.792 111.368 27.36 115.336C24.928 119.304 21.056 121.288 15.744 121.288C12.544 121.288 10.048 120.264 8.256 118.216C6.464 116.168 5.568 113.256 5.568 109.48C5.568 103.464 7.2 98.568 10.464 94.792C13.792 91.016 17.76 88.68 22.368 87.784V47.56C22.368 45.64 22.848 44.2 23.808 43.24C24.768 42.216 25.952 41.704 27.36 41.704C28.768 41.704 29.984 42.152 31.008 43.048V87.112H59.136V39.112ZM9.984 109.768C9.984 112.2 10.496 114.056 11.52 115.336C12.608 116.616 14.112 117.256 16.032 117.256C18.016 117.256 19.552 115.88 20.64 113.128C21.728 110.376 22.304 105.384 22.368 98.152V92.776C18.72 93.608 15.744 95.496 13.44 98.44C11.136 101.384 9.984 105.16 9.984 109.768Z" fill="#1F2937"/>
</svg>
