<svg width="283" height="113" viewBox="0 0 283 113" fill="none" xmlns="http://www.w3.org/2000/svg">
<path d="M53.568 5.856C53.568 3.936 54.048 2.496 55.008 1.536C55.968 0.511999 57.152 0 58.56 0C59.968 0 61.184 0.448 62.208 1.344V53.76H70.752C71.84 53.76 72.672 54.048 73.248 54.624C73.888 55.136 74.208 55.808 74.208 56.64C74.208 57.472 73.92 58.176 73.344 58.752H62.208V76.992C62.208 78.912 61.728 80.352 60.768 81.312C59.808 82.336 58.624 82.848 57.216 82.848C55.808 82.848 54.592 82.4 53.568 81.504V58.752H25.44V64.128C25.44 72.128 24.224 78.112 21.792 82.08C19.36 86.048 15.488 88.032 10.176 88.032C6.976 88.032 4.48 87.008 2.688 84.96C0.896 82.912 0 80 0 76.224C0 70.208 1.632 65.312 4.896 61.536C8.224 57.76 12.192 55.424 16.8 54.528V14.304C16.8 12.384 17.28 10.944 18.24 9.984C19.2 8.96 20.384 8.448 21.792 8.448C23.2 8.448 24.416 8.896 25.44 9.792V53.856H53.568V5.856ZM4.416 76.512C4.416 78.944 4.928 80.8 5.952 82.08C7.04 83.36 8.544 84 10.464 84C12.448 84 13.984 82.624 15.072 79.872C16.16 77.12 16.736 72.128 16.8 64.896V59.52C13.152 60.352 10.176 62.24 7.872 65.184C5.568 68.128 4.416 71.904 4.416 76.512Z" fill="white"/>
<path d="M106.944 35.136C107.776 33.28 109.088 32.352 110.88 32.352C112.736 32.352 114.112 32.8 115.008 33.696V61.248C115.008 64.896 115.584 67.648 116.736 69.504C117.888 71.36 119.456 72.288 121.44 72.288C127.456 72.288 130.464 66.048 130.464 53.568C130.528 53.184 131.008 52.992 131.904 52.992C133.056 52.992 133.632 54.688 133.632 58.08C133.632 63.52 132.448 67.872 130.08 71.136C127.776 74.4 124.512 76.032 120.288 76.032C113.824 76.032 109.536 73.184 107.424 67.488C106.208 70.112 104.544 72.192 102.432 73.728C100.32 75.264 97.92 76.032 95.232 76.032C84.032 76.032 78.432 68.704 78.432 54.048C78.432 46.624 80.16 41.152 83.616 37.632C87.136 34.112 91.776 32.352 97.536 32.352C101.952 32.352 105.088 33.28 106.944 35.136ZM88.896 65.856C89.792 68.672 90.816 70.464 91.968 71.232C93.12 71.936 94.656 72.288 96.576 72.288C98.496 72.288 100.576 71.104 102.816 68.736C105.12 66.304 106.272 63.168 106.272 59.328V46.176C106.272 43.168 105.472 40.736 103.872 38.88C102.336 37.024 100.576 36.096 98.592 36.096C96.672 36.096 95.136 36.288 93.984 36.672C92.832 37.056 91.744 37.856 90.72 39.072C88.608 41.376 87.552 46.368 87.552 54.048C87.552 59.104 88 63.04 88.896 65.856Z" fill="white"/>
<path d="M167.995 40.512C170.107 44.16 171.163 49.088 171.163 55.296C171.163 61.44 169.595 66.432 166.459 70.272C163.387 74.048 159.355 75.936 154.363 75.936C151.419 75.936 148.795 74.912 146.491 72.864C144.251 70.816 143.131 67.552 143.131 63.072C143.131 52.576 148.347 44.736 158.779 39.552C157.115 37.248 154.779 36.096 151.771 36.096C148.827 36.096 146.011 37.568 143.323 40.512C140.635 43.456 139.291 47.872 139.291 53.76V110.88C138.651 111.776 137.531 112.224 135.931 112.224C134.331 112.224 133.051 111.712 132.091 110.688C131.131 109.728 130.651 108.288 130.651 106.368V33.696C131.291 32.8 132.411 32.352 134.011 32.352C135.611 32.352 136.891 32.864 137.851 33.888C138.811 34.848 139.291 36.288 139.291 38.208V40.32C142.619 35.008 147.003 32.352 152.443 32.352C157.947 32.352 162.235 33.888 165.307 36.96C172.027 34.784 179.547 33.696 187.867 33.696C189.595 33.696 190.459 34.4 190.459 35.808L189.883 37.248C182.139 37.248 174.843 38.336 167.995 40.512ZM154.171 72.192C159.419 72.192 162.043 66.976 162.043 56.544C162.043 51.04 161.595 46.72 160.699 43.584C152.251 48.192 148.027 54.784 148.027 63.36C148.027 66.176 148.635 68.352 149.851 69.888C151.067 71.424 152.507 72.192 154.171 72.192Z" fill="white"/>
<path d="M183.338 24C183.338 22.08 183.818 20.64 184.778 19.68C185.738 18.656 186.954 18.144 188.426 18.144C189.898 18.144 191.082 18.592 191.978 19.488V33.696H205.13C206.474 33.696 207.338 33.952 207.722 34.464C208.17 34.976 208.394 35.84 208.394 37.056H191.978V61.248C191.978 64.768 192.97 67.488 194.954 69.408C197.002 71.328 199.338 72.288 201.962 72.288C205.93 72.288 208.842 70.816 210.698 67.872C212.554 64.928 213.482 60.16 213.482 53.568C213.61 53.184 214.09 52.992 214.922 52.992C216.074 52.992 216.65 54.688 216.65 58.08C216.65 63.264 215.338 67.552 212.714 70.944C210.154 74.336 206.186 76.032 200.81 76.032C195.434 76.032 191.178 74.624 188.042 71.808C184.906 68.992 183.338 64.8 183.338 59.232V24Z" fill="white"/>
<path d="M214.385 22.944C213.297 21.856 212.753 20.512 212.753 18.912C212.753 17.312 213.297 15.968 214.385 14.88C215.473 13.728 216.817 13.152 218.417 13.152C220.017 13.152 221.361 13.728 222.449 14.88C223.601 15.968 224.177 17.312 224.177 18.912C224.177 20.512 223.601 21.856 222.449 22.944C221.361 24.032 220.017 24.576 218.417 24.576C216.817 24.576 215.473 24.032 214.385 22.944ZM214.001 38.208C214.001 36.288 214.481 34.848 215.441 33.888C216.401 32.864 217.617 32.352 219.089 32.352C220.561 32.352 221.745 32.8 222.641 33.696V61.248C222.641 64.896 223.345 67.648 224.753 69.504C226.161 71.36 228.081 72.288 230.513 72.288C232.945 72.288 235.217 70.816 237.329 67.872C239.441 64.928 240.497 60.16 240.497 53.568C240.625 53.184 241.105 52.992 241.937 52.992C243.089 52.992 243.665 54.688 243.665 58.08C243.665 63.008 242.321 67.232 239.633 70.752C236.945 74.272 233.521 76.032 229.361 76.032C224.177 76.032 220.305 74.496 217.745 71.424C215.249 68.352 214.001 64 214.001 58.368V38.208Z" fill="white"/>
<path d="M280.937 56.064C282.281 56.064 282.953 56.992 282.953 58.848C282.953 60.704 282.569 62.56 281.801 64.416C281.033 66.272 279.913 68.096 278.441 69.888C277.033 71.68 275.017 73.152 272.393 74.304C269.833 75.456 266.921 76.032 263.657 76.032C256.489 76.032 250.857 74.24 246.761 70.656C242.729 67.008 240.713 61.696 240.713 54.72C240.713 47.68 242.505 42.208 246.089 38.304C249.673 34.336 254.249 32.352 259.817 32.352C263.849 32.352 266.793 33.44 268.649 35.616C270.505 37.728 271.433 40.256 271.433 43.2C271.433 44.8 270.953 46.08 269.993 47.04C269.033 48 268.105 48.48 267.209 48.48C265.545 48.48 264.457 48.096 263.945 47.328C264.329 46.368 264.521 44.992 264.521 43.2C264.521 41.408 263.913 39.776 262.697 38.304C261.481 36.832 260.009 36.096 258.281 36.096C255.273 36.096 253.097 37.568 251.753 40.512C250.473 43.456 249.833 48.096 249.833 54.432C249.833 60.704 251.049 65.248 253.481 68.064C255.977 70.88 259.433 72.288 263.849 72.288C268.265 72.288 271.977 70.944 274.985 68.256C277.993 65.504 279.497 61.632 279.497 56.64C279.561 56.256 280.041 56.064 280.937 56.064Z" fill="white"/>
</svg>
