<svg width="137" height="86" viewBox="0 0 137 86" fill="none" xmlns="http://www.w3.org/2000/svg">
<path d="M97.6719 78.4531H79.0625V50.5156H57.5469V78.4531H38.9375V9.92188H57.5469V35.3281H79.0625V9.92188H97.6719V78.4531Z" fill="#FACC3D"/>
<path d="M0 43.1719C0 34.1094 1.10938 25.9375 3.32812 18.6562C5.54688 11.375 8.8125 5.15625 13.125 0H28.4062C24.4688 5.46875 21.4375 11.9062 19.3125 19.3125C17.1875 26.7188 16.125 34.6406 16.125 43.0781C16.125 51.2344 17.1562 58.9844 19.2188 66.3281C21.2812 73.6406 24.3125 80.0781 28.3125 85.6406H13.125C8.84375 80.7031 5.57812 74.6406 3.32812 67.4531C1.10938 60.2656 0 52.1719 0 43.1719Z" fill="#FACC3D"/>
<path d="M136.562 43.1719C136.562 52.0156 135.438 60.0625 133.188 67.3125C130.969 74.5312 127.703 80.6406 123.391 85.6406H108.203C112.141 80.2656 115.156 73.8906 117.25 66.5156C119.344 59.1094 120.391 51.2969 120.391 43.0781C120.391 34.7969 119.359 26.9688 117.297 19.5938C115.234 12.1875 112.172 5.65625 108.109 0H123.391C127.734 5.1875 131.016 11.4688 133.234 18.8438C135.453 26.2188 136.562 34.3281 136.562 43.1719Z" fill="#FACC3D"/>
</svg>
