<svg width="295" height="295" viewBox="0 0 295 295" fill="none" xmlns="http://www.w3.org/2000/svg">
<circle cx="5" cy="5" r="5" fill="#FFFBE6"/>
<circle cx="20" cy="5" r="5" fill="#FFFBE6"/>
<circle cx="35" cy="5" r="5" fill="#FFFBE6"/>
<circle cx="50" cy="5" r="5" fill="#FFFBE6"/>
<circle cx="65" cy="5" r="5" fill="#FFFBE6"/>
<circle cx="80" cy="5" r="5" fill="#FFFBE6"/>
<circle cx="95" cy="5" r="5" fill="#FFFBE6"/>
<circle cx="110" cy="5" r="5" fill="#FFFBE6"/>
<circle cx="125" cy="5" r="5" fill="#FFFBE6"/>
<circle cx="140" cy="5" r="5" fill="#FFFBE6"/>
<circle cx="155" cy="5" r="5" fill="#FFFBE6"/>
<circle cx="170" cy="5" r="5" fill="#FFFBE6"/>
<circle cx="185" cy="5" r="5" fill="#FFFBE6"/>
<circle cx="200" cy="5" r="5" fill="#FFFBE6"/>
<circle cx="215" cy="5" r="5" fill="#FFFBE6"/>
<circle cx="230" cy="5" r="5" fill="#FFFBE6"/>
<circle cx="245" cy="5" r="5" fill="#FFFBE6"/>
<circle cx="260" cy="5" r="5" fill="#FFFBE6"/>
<circle cx="275" cy="5" r="5" fill="#FFFBE6"/>
<circle cx="290" cy="5" r="5" fill="#FFFBE6"/>
<circle cx="5" cy="20" r="5" fill="#FFFBE6"/>
<circle cx="20" cy="20" r="5" fill="#FFFBE6"/>
<circle cx="35" cy="20" r="5" fill="#FFFBE6"/>
<circle cx="50" cy="20" r="5" fill="#FFFBE6"/>
<circle cx="65" cy="20" r="5" fill="#FFFBE6"/>
<circle cx="80" cy="20" r="5" fill="#FFFBE6"/>
<circle cx="95" cy="20" r="5" fill="#FFFBE6"/>
<circle cx="110" cy="20" r="5" fill="#FFFBE6"/>
<circle cx="125" cy="20" r="5" fill="#FFFBE6"/>
<circle cx="140" cy="20" r="5" fill="#FFFBE6"/>
<circle cx="155" cy="20" r="5" fill="#FFFBE6"/>
<circle cx="170" cy="20" r="5" fill="#FFFBE6"/>
<circle cx="185" cy="20" r="5" fill="#FFFBE6"/>
<circle cx="200" cy="20" r="5" fill="#FFFBE6"/>
<circle cx="215" cy="20" r="5" fill="#FFFBE6"/>
<circle cx="230" cy="20" r="5" fill="#FFFBE6"/>
<circle cx="245" cy="20" r="5" fill="#FFFBE6"/>
<circle cx="260" cy="20" r="5" fill="#FFFBE6"/>
<circle cx="275" cy="20" r="5" fill="#FFFBE6"/>
<circle cx="290" cy="20" r="5" fill="#FFFBE6"/>
<circle cx="5" cy="35" r="5" fill="#FFFBE6"/>
<circle cx="20" cy="35" r="5" fill="#FFFBE6"/>
<circle cx="35" cy="35" r="5" fill="#FFFBE6"/>
<circle cx="50" cy="35" r="5" fill="#FFFBE6"/>
<circle cx="65" cy="35" r="5" fill="#FFFBE6"/>
<circle cx="80" cy="35" r="5" fill="#FFFBE6"/>
<circle cx="95" cy="35" r="5" fill="#FFFBE6"/>
<circle cx="110" cy="35" r="5" fill="#FFFBE6"/>
<circle cx="125" cy="35" r="5" fill="#FFFBE6"/>
<circle cx="140" cy="35" r="5" fill="#FFFBE6"/>
<circle cx="155" cy="35" r="5" fill="#FFFBE6"/>
<circle cx="170" cy="35" r="5" fill="#FFFBE6"/>
<circle cx="185" cy="35" r="5" fill="#FFFBE6"/>
<circle cx="200" cy="35" r="5" fill="#FFFBE6"/>
<circle cx="215" cy="35" r="5" fill="#FFFBE6"/>
<circle cx="230" cy="35" r="5" fill="#FFFBE6"/>
<circle cx="245" cy="35" r="5" fill="#FFFBE6"/>
<circle cx="260" cy="35" r="5" fill="#FFFBE6"/>
<circle cx="275" cy="35" r="5" fill="#FFFBE6"/>
<circle cx="290" cy="35" r="5" fill="#FFFBE6"/>
<circle cx="5" cy="50" r="5" fill="#FFFBE6"/>
<circle cx="20" cy="50" r="5" fill="#FFFBE6"/>
<circle cx="35" cy="50" r="5" fill="#FFFBE6"/>
<circle cx="50" cy="50" r="5" fill="#FFFBE6"/>
<circle cx="65" cy="50" r="5" fill="#FFFBE6"/>
<circle cx="80" cy="50" r="5" fill="#FFFBE6"/>
<circle cx="95" cy="50" r="5" fill="#FFFBE6"/>
<circle cx="110" cy="50" r="5" fill="#FFFBE6"/>
<circle cx="125" cy="50" r="5" fill="#FFFBE6"/>
<circle cx="140" cy="50" r="5" fill="#FFFBE6"/>
<circle cx="155" cy="50" r="5" fill="#FFFBE6"/>
<circle cx="170" cy="50" r="5" fill="#FFFBE6"/>
<circle cx="185" cy="50" r="5" fill="#FFFBE6"/>
<circle cx="200" cy="50" r="5" fill="#FFFBE6"/>
<circle cx="215" cy="50" r="5" fill="#FFFBE6"/>
<circle cx="230" cy="50" r="5" fill="#FFFBE6"/>
<circle cx="245" cy="50" r="5" fill="#FFFBE6"/>
<circle cx="260" cy="50" r="5" fill="#FFFBE6"/>
<circle cx="275" cy="50" r="5" fill="#FFFBE6"/>
<circle cx="290" cy="50" r="5" fill="#FFFBE6"/>
<circle cx="5" cy="65" r="5" fill="#FFFBE6"/>
<circle cx="20" cy="65" r="5" fill="#FFFBE6"/>
<circle cx="35" cy="65" r="5" fill="#FFFBE6"/>
<circle cx="50" cy="65" r="5" fill="#FFFBE6"/>
<circle cx="65" cy="65" r="5" fill="#FFFBE6"/>
<circle cx="80" cy="65" r="5" fill="#FFFBE6"/>
<circle cx="95" cy="65" r="5" fill="#FFFBE6"/>
<circle cx="110" cy="65" r="5" fill="#FFFBE6"/>
<circle cx="125" cy="65" r="5" fill="#FFFBE6"/>
<circle cx="140" cy="65" r="5" fill="#FFFBE6"/>
<circle cx="155" cy="65" r="5" fill="#FFFBE6"/>
<circle cx="170" cy="65" r="5" fill="#FFFBE6"/>
<circle cx="185" cy="65" r="5" fill="#FFFBE6"/>
<circle cx="200" cy="65" r="5" fill="#FFFBE6"/>
<circle cx="215" cy="65" r="5" fill="#FFFBE6"/>
<circle cx="230" cy="65" r="5" fill="#FFFBE6"/>
<circle cx="245" cy="65" r="5" fill="#FFFBE6"/>
<circle cx="260" cy="65" r="5" fill="#FFFBE6"/>
<circle cx="275" cy="65" r="5" fill="#FFFBE6"/>
<circle cx="290" cy="65" r="5" fill="#FFFBE6"/>
<circle cx="5" cy="80" r="5" fill="#FFFBE6"/>
<circle cx="20" cy="80" r="5" fill="#FFFBE6"/>
<circle cx="35" cy="80" r="5" fill="#FFFBE6"/>
<circle cx="50" cy="80" r="5" fill="#FFFBE6"/>
<circle cx="65" cy="80" r="5" fill="#FFFBE6"/>
<circle cx="80" cy="80" r="5" fill="#FFFBE6"/>
<circle cx="95" cy="80" r="5" fill="#FFFBE6"/>
<circle cx="110" cy="80" r="5" fill="#FFFBE6"/>
<circle cx="125" cy="80" r="5" fill="#FFFBE6"/>
<circle cx="140" cy="80" r="5" fill="#FFFBE6"/>
<circle cx="155" cy="80" r="5" fill="#FFFBE6"/>
<circle cx="170" cy="80" r="5" fill="#FFFBE6"/>
<circle cx="185" cy="80" r="5" fill="#FFFBE6"/>
<circle cx="200" cy="80" r="5" fill="#FFFBE6"/>
<circle cx="215" cy="80" r="5" fill="#FFFBE6"/>
<circle cx="230" cy="80" r="5" fill="#FFFBE6"/>
<circle cx="245" cy="80" r="5" fill="#FFFBE6"/>
<circle cx="260" cy="80" r="5" fill="#FFFBE6"/>
<circle cx="275" cy="80" r="5" fill="#FFFBE6"/>
<circle cx="290" cy="80" r="5" fill="#FFFBE6"/>
<circle cx="5" cy="95" r="5" fill="#FFFBE6"/>
<circle cx="20" cy="95" r="5" fill="#FFFBE6"/>
<circle cx="35" cy="95" r="5" fill="#FFFBE6"/>
<circle cx="50" cy="95" r="5" fill="#FFFBE6"/>
<circle cx="65" cy="95" r="5" fill="#FFFBE6"/>
<circle cx="80" cy="95" r="5" fill="#FFFBE6"/>
<circle cx="95" cy="95" r="5" fill="#FFFBE6"/>
<circle cx="110" cy="95" r="5" fill="#FFFBE6"/>
<circle cx="125" cy="95" r="5" fill="#FFFBE6"/>
<circle cx="140" cy="95" r="5" fill="#FFFBE6"/>
<circle cx="155" cy="95" r="5" fill="#FFFBE6"/>
<circle cx="170" cy="95" r="5" fill="#FFFBE6"/>
<circle cx="185" cy="95" r="5" fill="#FFFBE6"/>
<circle cx="200" cy="95" r="5" fill="#FFFBE6"/>
<circle cx="215" cy="95" r="5" fill="#FFFBE6"/>
<circle cx="230" cy="95" r="5" fill="#FFFBE6"/>
<circle cx="245" cy="95" r="5" fill="#FFFBE6"/>
<circle cx="260" cy="95" r="5" fill="#FFFBE6"/>
<circle cx="275" cy="95" r="5" fill="#FFFBE6"/>
<circle cx="290" cy="95" r="5" fill="#FFFBE6"/>
<circle cx="5" cy="110" r="5" fill="#FFFBE6"/>
<circle cx="20" cy="110" r="5" fill="#FFFBE6"/>
<circle cx="35" cy="110" r="5" fill="#FFFBE6"/>
<circle cx="50" cy="110" r="5" fill="#FFFBE6"/>
<circle cx="65" cy="110" r="5" fill="#FFFBE6"/>
<circle cx="80" cy="110" r="5" fill="#FFFBE6"/>
<circle cx="95" cy="110" r="5" fill="#FFFBE6"/>
<circle cx="110" cy="110" r="5" fill="#FFFBE6"/>
<circle cx="125" cy="110" r="5" fill="#FFFBE6"/>
<circle cx="140" cy="110" r="5" fill="#FFFBE6"/>
<circle cx="155" cy="110" r="5" fill="#FFFBE6"/>
<circle cx="170" cy="110" r="5" fill="#FFFBE6"/>
<circle cx="185" cy="110" r="5" fill="#FFFBE6"/>
<circle cx="200" cy="110" r="5" fill="#FFFBE6"/>
<circle cx="215" cy="110" r="5" fill="#FFFBE6"/>
<circle cx="230" cy="110" r="5" fill="#FFFBE6"/>
<circle cx="245" cy="110" r="5" fill="#FFFBE6"/>
<circle cx="260" cy="110" r="5" fill="#FFFBE6"/>
<circle cx="275" cy="110" r="5" fill="#FFFBE6"/>
<circle cx="290" cy="110" r="5" fill="#FFFBE6"/>
<circle cx="5" cy="125" r="5" fill="#FFFBE6"/>
<circle cx="20" cy="125" r="5" fill="#FFFBE6"/>
<circle cx="35" cy="125" r="5" fill="#FFFBE6"/>
<circle cx="50" cy="125" r="5" fill="#FFFBE6"/>
<circle cx="65" cy="125" r="5" fill="#FFFBE6"/>
<circle cx="80" cy="125" r="5" fill="#FFFBE6"/>
<circle cx="95" cy="125" r="5" fill="#FFFBE6"/>
<circle cx="110" cy="125" r="5" fill="#FFFBE6"/>
<circle cx="125" cy="125" r="5" fill="#FFFBE6"/>
<circle cx="140" cy="125" r="5" fill="#FFFBE6"/>
<circle cx="155" cy="125" r="5" fill="#FFFBE6"/>
<circle cx="170" cy="125" r="5" fill="#FFFBE6"/>
<circle cx="185" cy="125" r="5" fill="#FFFBE6"/>
<circle cx="200" cy="125" r="5" fill="#FFFBE6"/>
<circle cx="215" cy="125" r="5" fill="#FFFBE6"/>
<circle cx="230" cy="125" r="5" fill="#FFFBE6"/>
<circle cx="245" cy="125" r="5" fill="#FFFBE6"/>
<circle cx="260" cy="125" r="5" fill="#FFFBE6"/>
<circle cx="275" cy="125" r="5" fill="#FFFBE6"/>
<circle cx="290" cy="125" r="5" fill="#FFFBE6"/>
<circle cx="5" cy="140" r="5" fill="#FFFBE6"/>
<circle cx="20" cy="140" r="5" fill="#FFFBE6"/>
<circle cx="35" cy="140" r="5" fill="#FFFBE6"/>
<circle cx="50" cy="140" r="5" fill="#FFFBE6"/>
<circle cx="65" cy="140" r="5" fill="#FFFBE6"/>
<circle cx="80" cy="140" r="5" fill="#FFFBE6"/>
<circle cx="95" cy="140" r="5" fill="#FFFBE6"/>
<circle cx="110" cy="140" r="5" fill="#FFFBE6"/>
<circle cx="125" cy="140" r="5" fill="#FFFBE6"/>
<circle cx="140" cy="140" r="5" fill="#FFFBE6"/>
<circle cx="155" cy="140" r="5" fill="#FFFBE6"/>
<circle cx="170" cy="140" r="5" fill="#FFFBE6"/>
<circle cx="185" cy="140" r="5" fill="#FFFBE6"/>
<circle cx="200" cy="140" r="5" fill="#FFFBE6"/>
<circle cx="215" cy="140" r="5" fill="#FFFBE6"/>
<circle cx="230" cy="140" r="5" fill="#FFFBE6"/>
<circle cx="245" cy="140" r="5" fill="#FFFBE6"/>
<circle cx="260" cy="140" r="5" fill="#FFFBE6"/>
<circle cx="275" cy="140" r="5" fill="#FFFBE6"/>
<circle cx="290" cy="140" r="5" fill="#FFFBE6"/>
<circle cx="5" cy="155" r="5" fill="#FFFBE6"/>
<circle cx="20" cy="155" r="5" fill="#FFFBE6"/>
<circle cx="35" cy="155" r="5" fill="#FFFBE6"/>
<circle cx="50" cy="155" r="5" fill="#FFFBE6"/>
<circle cx="65" cy="155" r="5" fill="#FFFBE6"/>
<circle cx="80" cy="155" r="5" fill="#FFFBE6"/>
<circle cx="95" cy="155" r="5" fill="#FFFBE6"/>
<circle cx="110" cy="155" r="5" fill="#FFFBE6"/>
<circle cx="125" cy="155" r="5" fill="#FFFBE6"/>
<circle cx="140" cy="155" r="5" fill="#FFFBE6"/>
<circle cx="155" cy="155" r="5" fill="#FFFBE6"/>
<circle cx="170" cy="155" r="5" fill="#FFFBE6"/>
<circle cx="185" cy="155" r="5" fill="#FFFBE6"/>
<circle cx="200" cy="155" r="5" fill="#FFFBE6"/>
<circle cx="215" cy="155" r="5" fill="#FFFBE6"/>
<circle cx="230" cy="155" r="5" fill="#FFFBE6"/>
<circle cx="245" cy="155" r="5" fill="#FFFBE6"/>
<circle cx="260" cy="155" r="5" fill="#FFFBE6"/>
<circle cx="275" cy="155" r="5" fill="#FFFBE6"/>
<circle cx="290" cy="155" r="5" fill="#FFFBE6"/>
<circle cx="5" cy="170" r="5" fill="#FFFBE6"/>
<circle cx="20" cy="170" r="5" fill="#FFFBE6"/>
<circle cx="35" cy="170" r="5" fill="#FFFBE6"/>
<circle cx="50" cy="170" r="5" fill="#FFFBE6"/>
<circle cx="65" cy="170" r="5" fill="#FFFBE6"/>
<circle cx="80" cy="170" r="5" fill="#FFFBE6"/>
<circle cx="95" cy="170" r="5" fill="#FFFBE6"/>
<circle cx="110" cy="170" r="5" fill="#FFFBE6"/>
<circle cx="125" cy="170" r="5" fill="#FFFBE6"/>
<circle cx="140" cy="170" r="5" fill="#FFFBE6"/>
<circle cx="155" cy="170" r="5" fill="#FFFBE6"/>
<circle cx="170" cy="170" r="5" fill="#FFFBE6"/>
<circle cx="185" cy="170" r="5" fill="#FFFBE6"/>
<circle cx="200" cy="170" r="5" fill="#FFFBE6"/>
<circle cx="215" cy="170" r="5" fill="#FFFBE6"/>
<circle cx="230" cy="170" r="5" fill="#FFFBE6"/>
<circle cx="245" cy="170" r="5" fill="#FFFBE6"/>
<circle cx="260" cy="170" r="5" fill="#FFFBE6"/>
<circle cx="275" cy="170" r="5" fill="#FFFBE6"/>
<circle cx="290" cy="170" r="5" fill="#FFFBE6"/>
<circle cx="5" cy="185" r="5" fill="#FFFBE6"/>
<circle cx="20" cy="185" r="5" fill="#FFFBE6"/>
<circle cx="35" cy="185" r="5" fill="#FFFBE6"/>
<circle cx="50" cy="185" r="5" fill="#FFFBE6"/>
<circle cx="65" cy="185" r="5" fill="#FFFBE6"/>
<circle cx="80" cy="185" r="5" fill="#FFFBE6"/>
<circle cx="95" cy="185" r="5" fill="#FFFBE6"/>
<circle cx="110" cy="185" r="5" fill="#FFFBE6"/>
<circle cx="125" cy="185" r="5" fill="#FFFBE6"/>
<circle cx="140" cy="185" r="5" fill="#FFFBE6"/>
<circle cx="155" cy="185" r="5" fill="#FFFBE6"/>
<circle cx="170" cy="185" r="5" fill="#FFFBE6"/>
<circle cx="185" cy="185" r="5" fill="#FFFBE6"/>
<circle cx="200" cy="185" r="5" fill="#FFFBE6"/>
<circle cx="215" cy="185" r="5" fill="#FFFBE6"/>
<circle cx="230" cy="185" r="5" fill="#FFFBE6"/>
<circle cx="245" cy="185" r="5" fill="#FFFBE6"/>
<circle cx="260" cy="185" r="5" fill="#FFFBE6"/>
<circle cx="275" cy="185" r="5" fill="#FFFBE6"/>
<circle cx="290" cy="185" r="5" fill="#FFFBE6"/>
<circle cx="5" cy="200" r="5" fill="#FFFBE6"/>
<circle cx="20" cy="200" r="5" fill="#FFFBE6"/>
<circle cx="35" cy="200" r="5" fill="#FFFBE6"/>
<circle cx="50" cy="200" r="5" fill="#FFFBE6"/>
<circle cx="65" cy="200" r="5" fill="#FFFBE6"/>
<circle cx="80" cy="200" r="5" fill="#FFFBE6"/>
<circle cx="95" cy="200" r="5" fill="#FFFBE6"/>
<circle cx="110" cy="200" r="5" fill="#FFFBE6"/>
<circle cx="125" cy="200" r="5" fill="#FFFBE6"/>
<circle cx="140" cy="200" r="5" fill="#FFFBE6"/>
<circle cx="155" cy="200" r="5" fill="#FFFBE6"/>
<circle cx="170" cy="200" r="5" fill="#FFFBE6"/>
<circle cx="185" cy="200" r="5" fill="#FFFBE6"/>
<circle cx="200" cy="200" r="5" fill="#FFFBE6"/>
<circle cx="215" cy="200" r="5" fill="#FFFBE6"/>
<circle cx="230" cy="200" r="5" fill="#FFFBE6"/>
<circle cx="245" cy="200" r="5" fill="#FFFBE6"/>
<circle cx="260" cy="200" r="5" fill="#FFFBE6"/>
<circle cx="275" cy="200" r="5" fill="#FFFBE6"/>
<circle cx="290" cy="200" r="5" fill="#FFFBE6"/>
<circle cx="5" cy="215" r="5" fill="#FFFBE6"/>
<circle cx="20" cy="215" r="5" fill="#FFFBE6"/>
<circle cx="35" cy="215" r="5" fill="#FFFBE6"/>
<circle cx="50" cy="215" r="5" fill="#FFFBE6"/>
<circle cx="65" cy="215" r="5" fill="#FFFBE6"/>
<circle cx="80" cy="215" r="5" fill="#FFFBE6"/>
<circle cx="95" cy="215" r="5" fill="#FFFBE6"/>
<circle cx="110" cy="215" r="5" fill="#FFFBE6"/>
<circle cx="125" cy="215" r="5" fill="#FFFBE6"/>
<circle cx="140" cy="215" r="5" fill="#FFFBE6"/>
<circle cx="155" cy="215" r="5" fill="#FFFBE6"/>
<circle cx="170" cy="215" r="5" fill="#FFFBE6"/>
<circle cx="185" cy="215" r="5" fill="#FFFBE6"/>
<circle cx="200" cy="215" r="5" fill="#FFFBE6"/>
<circle cx="215" cy="215" r="5" fill="#FFFBE6"/>
<circle cx="230" cy="215" r="5" fill="#FFFBE6"/>
<circle cx="245" cy="215" r="5" fill="#FFFBE6"/>
<circle cx="260" cy="215" r="5" fill="#FFFBE6"/>
<circle cx="275" cy="215" r="5" fill="#FFFBE6"/>
<circle cx="290" cy="215" r="5" fill="#FFFBE6"/>
<circle cx="5" cy="230" r="5" fill="#FFFBE6"/>
<circle cx="20" cy="230" r="5" fill="#FFFBE6"/>
<circle cx="35" cy="230" r="5" fill="#FFFBE6"/>
<circle cx="50" cy="230" r="5" fill="#FFFBE6"/>
<circle cx="65" cy="230" r="5" fill="#FFFBE6"/>
<circle cx="80" cy="230" r="5" fill="#FFFBE6"/>
<circle cx="95" cy="230" r="5" fill="#FFFBE6"/>
<circle cx="110" cy="230" r="5" fill="#FFFBE6"/>
<circle cx="125" cy="230" r="5" fill="#FFFBE6"/>
<circle cx="140" cy="230" r="5" fill="#FFFBE6"/>
<circle cx="155" cy="230" r="5" fill="#FFFBE6"/>
<circle cx="170" cy="230" r="5" fill="#FFFBE6"/>
<circle cx="185" cy="230" r="5" fill="#FFFBE6"/>
<circle cx="200" cy="230" r="5" fill="#FFFBE6"/>
<circle cx="215" cy="230" r="5" fill="#FFFBE6"/>
<circle cx="230" cy="230" r="5" fill="#FFFBE6"/>
<circle cx="245" cy="230" r="5" fill="#FFFBE6"/>
<circle cx="260" cy="230" r="5" fill="#FFFBE6"/>
<circle cx="275" cy="230" r="5" fill="#FFFBE6"/>
<circle cx="290" cy="230" r="5" fill="#FFFBE6"/>
<circle cx="5" cy="245" r="5" fill="#FFFBE6"/>
<circle cx="20" cy="245" r="5" fill="#FFFBE6"/>
<circle cx="35" cy="245" r="5" fill="#FFFBE6"/>
<circle cx="50" cy="245" r="5" fill="#FFFBE6"/>
<circle cx="65" cy="245" r="5" fill="#FFFBE6"/>
<circle cx="80" cy="245" r="5" fill="#FFFBE6"/>
<circle cx="95" cy="245" r="5" fill="#FFFBE6"/>
<circle cx="110" cy="245" r="5" fill="#FFFBE6"/>
<circle cx="125" cy="245" r="5" fill="#FFFBE6"/>
<circle cx="140" cy="245" r="5" fill="#FFFBE6"/>
<circle cx="155" cy="245" r="5" fill="#FFFBE6"/>
<circle cx="170" cy="245" r="5" fill="#FFFBE6"/>
<circle cx="185" cy="245" r="5" fill="#FFFBE6"/>
<circle cx="200" cy="245" r="5" fill="#FFFBE6"/>
<circle cx="215" cy="245" r="5" fill="#FFFBE6"/>
<circle cx="230" cy="245" r="5" fill="#FFFBE6"/>
<circle cx="245" cy="245" r="5" fill="#FFFBE6"/>
<circle cx="260" cy="245" r="5" fill="#FFFBE6"/>
<circle cx="275" cy="245" r="5" fill="#FFFBE6"/>
<circle cx="290" cy="245" r="5" fill="#FFFBE6"/>
<circle cx="5" cy="260" r="5" fill="#FFFBE6"/>
<circle cx="20" cy="260" r="5" fill="#FFFBE6"/>
<circle cx="35" cy="260" r="5" fill="#FFFBE6"/>
<circle cx="50" cy="260" r="5" fill="#FFFBE6"/>
<circle cx="65" cy="260" r="5" fill="#FFFBE6"/>
<circle cx="80" cy="260" r="5" fill="#FFFBE6"/>
<circle cx="95" cy="260" r="5" fill="#FFFBE6"/>
<circle cx="110" cy="260" r="5" fill="#FFFBE6"/>
<circle cx="125" cy="260" r="5" fill="#FFFBE6"/>
<circle cx="140" cy="260" r="5" fill="#FFFBE6"/>
<circle cx="155" cy="260" r="5" fill="#FFFBE6"/>
<circle cx="170" cy="260" r="5" fill="#FFFBE6"/>
<circle cx="185" cy="260" r="5" fill="#FFFBE6"/>
<circle cx="200" cy="260" r="5" fill="#FFFBE6"/>
<circle cx="215" cy="260" r="5" fill="#FFFBE6"/>
<circle cx="230" cy="260" r="5" fill="#FFFBE6"/>
<circle cx="245" cy="260" r="5" fill="#FFFBE6"/>
<circle cx="260" cy="260" r="5" fill="#FFFBE6"/>
<circle cx="275" cy="260" r="5" fill="#FFFBE6"/>
<circle cx="290" cy="260" r="5" fill="#FFFBE6"/>
<circle cx="5" cy="275" r="5" fill="#FFFBE6"/>
<circle cx="20" cy="275" r="5" fill="#FFFBE6"/>
<circle cx="35" cy="275" r="5" fill="#FFFBE6"/>
<circle cx="50" cy="275" r="5" fill="#FFFBE6"/>
<circle cx="65" cy="275" r="5" fill="#FFFBE6"/>
<circle cx="80" cy="275" r="5" fill="#FFFBE6"/>
<circle cx="95" cy="275" r="5" fill="#FFFBE6"/>
<circle cx="110" cy="275" r="5" fill="#FFFBE6"/>
<circle cx="125" cy="275" r="5" fill="#FFFBE6"/>
<circle cx="140" cy="275" r="5" fill="#FFFBE6"/>
<circle cx="155" cy="275" r="5" fill="#FFFBE6"/>
<circle cx="170" cy="275" r="5" fill="#FFFBE6"/>
<circle cx="185" cy="275" r="5" fill="#FFFBE6"/>
<circle cx="200" cy="275" r="5" fill="#FFFBE6"/>
<circle cx="215" cy="275" r="5" fill="#FFFBE6"/>
<circle cx="230" cy="275" r="5" fill="#FFFBE6"/>
<circle cx="245" cy="275" r="5" fill="#FFFBE6"/>
<circle cx="260" cy="275" r="5" fill="#FFFBE6"/>
<circle cx="275" cy="275" r="5" fill="#FFFBE6"/>
<circle cx="290" cy="275" r="5" fill="#FFFBE6"/>
<circle cx="5" cy="290" r="5" fill="#FFFBE6"/>
<circle cx="20" cy="290" r="5" fill="#FFFBE6"/>
<circle cx="35" cy="290" r="5" fill="#FFFBE6"/>
<circle cx="50" cy="290" r="5" fill="#FFFBE6"/>
<circle cx="65" cy="290" r="5" fill="#FFFBE6"/>
<circle cx="80" cy="290" r="5" fill="#FFFBE6"/>
<circle cx="95" cy="290" r="5" fill="#FFFBE6"/>
<circle cx="110" cy="290" r="5" fill="#FFFBE6"/>
<circle cx="125" cy="290" r="5" fill="#FFFBE6"/>
<circle cx="140" cy="290" r="5" fill="#FFFBE6"/>
<circle cx="155" cy="290" r="5" fill="#FFFBE6"/>
<circle cx="170" cy="290" r="5" fill="#FFFBE6"/>
<circle cx="185" cy="290" r="5" fill="#FFFBE6"/>
<circle cx="200" cy="290" r="5" fill="#FFFBE6"/>
<circle cx="215" cy="290" r="5" fill="#FFFBE6"/>
<circle cx="230" cy="290" r="5" fill="#FFFBE6"/>
<circle cx="245" cy="290" r="5" fill="#FFFBE6"/>
<circle cx="260" cy="290" r="5" fill="#FFFBE6"/>
<circle cx="275" cy="290" r="5" fill="#FFFBE6"/>
<circle cx="290" cy="290" r="5" fill="#FFFBE6"/>
</svg>
