<svg width="482" height="233" viewBox="0 0 482 233" fill="none" xmlns="http://www.w3.org/2000/svg">
<g filter="url(#filter0_d)">
<rect x="15" y="5" width="452" height="203" rx="25" fill="white"/>
<rect x="15.5" y="5.5" width="451" height="202" rx="24.5" stroke="#D1D5DB"/>
</g>
<rect x="44.5" y="37.5" width="392" height="61" rx="14.5" fill="white" stroke="#D1D5DB"/>
<path d="M81.6667 66.6667L75 60L68.3333 66.6667" stroke="black" stroke-width="2" stroke-linecap="round" stroke-linejoin="round"/>
<path d="M81.6667 75.9999L75 69.3333L68.3333 75.9999" stroke="black" stroke-width="2" stroke-linecap="round" stroke-linejoin="round"/>
<path d="M122.824 68.288C123.8 68.56 124.568 69.056 125.128 69.776C125.688 70.48 125.968 71.376 125.968 72.464C125.968 73.92 125.416 75.04 124.312 75.824C123.224 76.608 121.632 77 119.536 77H111.52V60.2H119.056C120.976 60.2 122.456 60.584 123.496 61.352C124.552 62.12 125.08 63.184 125.08 64.544C125.08 65.424 124.872 66.184 124.456 66.824C124.056 67.464 123.512 67.952 122.824 68.288ZM113.92 62.144V67.52H118.84C120.072 67.52 121.016 67.296 121.672 66.848C122.344 66.384 122.68 65.712 122.68 64.832C122.68 63.952 122.344 63.288 121.672 62.84C121.016 62.376 120.072 62.144 118.84 62.144H113.92ZM119.44 75.056C120.8 75.056 121.824 74.832 122.512 74.384C123.2 73.936 123.544 73.232 123.544 72.272C123.544 70.4 122.176 69.464 119.44 69.464H113.92V75.056H119.44ZM134.796 77.144C133.532 77.144 132.396 76.864 131.388 76.304C130.38 75.744 129.588 74.976 129.012 74C128.452 73.008 128.172 71.888 128.172 70.64C128.172 69.392 128.452 68.28 129.012 67.304C129.588 66.312 130.38 65.544 131.388 65C132.396 64.44 133.532 64.16 134.796 64.16C136.06 64.16 137.188 64.44 138.18 65C139.188 65.544 139.972 66.312 140.532 67.304C141.108 68.28 141.396 69.392 141.396 70.64C141.396 71.888 141.108 73.008 140.532 74C139.972 74.976 139.188 75.744 138.18 76.304C137.188 76.864 136.06 77.144 134.796 77.144ZM134.796 75.128C135.612 75.128 136.34 74.944 136.98 74.576C137.636 74.192 138.148 73.664 138.516 72.992C138.884 72.304 139.068 71.52 139.068 70.64C139.068 69.76 138.884 68.984 138.516 68.312C138.148 67.624 137.636 67.096 136.98 66.728C136.34 66.36 135.612 66.176 134.796 66.176C133.98 66.176 133.244 66.36 132.588 66.728C131.948 67.096 131.436 67.624 131.052 68.312C130.684 68.984 130.5 69.76 130.5 70.64C130.5 71.52 130.684 72.304 131.052 72.992C131.436 73.664 131.948 74.192 132.588 74.576C133.244 74.944 133.98 75.128 134.796 75.128ZM150.03 77.144C148.766 77.144 147.63 76.864 146.622 76.304C145.614 75.744 144.822 74.976 144.246 74C143.686 73.008 143.406 71.888 143.406 70.64C143.406 69.392 143.686 68.28 144.246 67.304C144.822 66.312 145.614 65.544 146.622 65C147.63 64.44 148.766 64.16 150.03 64.16C151.294 64.16 152.422 64.44 153.414 65C154.422 65.544 155.206 66.312 155.766 67.304C156.342 68.28 156.63 69.392 156.63 70.64C156.63 71.888 156.342 73.008 155.766 74C155.206 74.976 154.422 75.744 153.414 76.304C152.422 76.864 151.294 77.144 150.03 77.144ZM150.03 75.128C150.846 75.128 151.574 74.944 152.214 74.576C152.87 74.192 153.382 73.664 153.75 72.992C154.118 72.304 154.302 71.52 154.302 70.64C154.302 69.76 154.118 68.984 153.75 68.312C153.382 67.624 152.87 67.096 152.214 66.728C151.574 66.36 150.846 66.176 150.03 66.176C149.214 66.176 148.478 66.36 147.822 66.728C147.182 67.096 146.67 67.624 146.286 68.312C145.918 68.984 145.734 69.76 145.734 70.64C145.734 71.52 145.918 72.304 146.286 72.992C146.67 73.664 147.182 74.192 147.822 74.576C148.478 74.944 149.214 75.128 150.03 75.128ZM163.465 77.144C162.425 77.144 161.425 77.008 160.465 76.736C159.505 76.448 158.753 76.088 158.209 75.656L159.169 73.832C159.729 74.232 160.409 74.552 161.209 74.792C162.009 75.032 162.817 75.152 163.633 75.152C165.649 75.152 166.657 74.576 166.657 73.424C166.657 73.04 166.521 72.736 166.249 72.512C165.977 72.288 165.633 72.128 165.217 72.032C164.817 71.92 164.241 71.8 163.489 71.672C162.465 71.512 161.625 71.328 160.969 71.12C160.329 70.912 159.777 70.56 159.313 70.064C158.849 69.568 158.617 68.872 158.617 67.976C158.617 66.824 159.097 65.904 160.057 65.216C161.017 64.512 162.305 64.16 163.921 64.16C164.769 64.16 165.617 64.264 166.465 64.472C167.313 64.68 168.009 64.96 168.553 65.312L167.569 67.136C166.529 66.464 165.305 66.128 163.897 66.128C162.921 66.128 162.177 66.288 161.665 66.608C161.153 66.928 160.897 67.352 160.897 67.88C160.897 68.296 161.041 68.624 161.329 68.864C161.617 69.104 161.969 69.28 162.385 69.392C162.817 69.504 163.417 69.632 164.185 69.776C165.209 69.952 166.033 70.144 166.657 70.352C167.297 70.544 167.841 70.88 168.289 71.36C168.737 71.84 168.961 72.512 168.961 73.376C168.961 74.528 168.465 75.448 167.473 76.136C166.497 76.808 165.161 77.144 163.465 77.144ZM178.992 76.256C178.656 76.544 178.24 76.768 177.744 76.928C177.248 77.072 176.736 77.144 176.208 77.144C174.928 77.144 173.936 76.8 173.232 76.112C172.528 75.424 172.176 74.44 172.176 73.16V66.176H170.016V64.28H172.176V61.496H174.48V64.28H178.128V66.176H174.48V73.064C174.48 73.752 174.648 74.28 174.984 74.648C175.336 75.016 175.832 75.2 176.472 75.2C177.176 75.2 177.776 75 178.272 74.6L178.992 76.256Z" fill="black"/>
<rect x="362" y="50" width="59" height="38" rx="15" fill="#FCD34D"/>
<path d="M390.72 73.434V75H381.666V73.776L386.796 68.826C387.42 68.226 387.84 67.71 388.056 67.278C388.272 66.834 388.38 66.39 388.38 65.946C388.38 65.286 388.146 64.776 387.678 64.416C387.222 64.044 386.562 63.858 385.698 63.858C384.306 63.858 383.232 64.314 382.476 65.226L381.252 64.164C381.744 63.564 382.386 63.096 383.178 62.76C383.982 62.424 384.876 62.256 385.86 62.256C387.18 62.256 388.23 62.574 389.01 63.21C389.79 63.834 390.18 64.686 390.18 65.766C390.18 66.438 390.036 67.074 389.748 67.674C389.46 68.274 388.914 68.958 388.11 69.726L384.258 73.434H390.72ZM399.904 68.394C400.624 68.67 401.176 69.066 401.56 69.582C401.944 70.098 402.136 70.716 402.136 71.436C402.136 72.192 401.932 72.852 401.524 73.416C401.116 73.968 400.534 74.394 399.778 74.694C399.022 74.994 398.134 75.144 397.114 75.144C396.106 75.144 395.224 74.994 394.468 74.694C393.724 74.394 393.148 73.968 392.74 73.416C392.332 72.852 392.128 72.192 392.128 71.436C392.128 70.716 392.314 70.098 392.686 69.582C393.07 69.066 393.622 68.67 394.342 68.394C393.766 68.118 393.328 67.752 393.028 67.296C392.728 66.84 392.578 66.3 392.578 65.676C392.578 64.98 392.764 64.374 393.136 63.858C393.52 63.342 394.054 62.946 394.738 62.67C395.422 62.394 396.214 62.256 397.114 62.256C398.026 62.256 398.824 62.394 399.508 62.67C400.204 62.946 400.738 63.342 401.11 63.858C401.494 64.374 401.686 64.98 401.686 65.676C401.686 66.288 401.53 66.828 401.218 67.296C400.918 67.752 400.48 68.118 399.904 68.394ZM397.114 63.714C396.262 63.714 395.59 63.9 395.098 64.272C394.606 64.632 394.36 65.124 394.36 65.748C394.36 66.372 394.6 66.864 395.08 67.224C395.572 67.584 396.25 67.764 397.114 67.764C397.99 67.764 398.674 67.584 399.166 67.224C399.67 66.864 399.922 66.372 399.922 65.748C399.922 65.124 399.664 64.632 399.148 64.272C398.644 63.9 397.966 63.714 397.114 63.714ZM397.114 73.686C398.11 73.686 398.896 73.482 399.472 73.074C400.048 72.654 400.336 72.09 400.336 71.382C400.336 70.686 400.048 70.14 399.472 69.744C398.896 69.336 398.11 69.132 397.114 69.132C396.118 69.132 395.338 69.336 394.774 69.744C394.21 70.14 393.928 70.686 393.928 71.382C393.928 72.09 394.21 72.654 394.774 73.074C395.338 73.482 396.118 73.686 397.114 73.686Z" fill="black"/>
<rect x="44.5" y="115.5" width="392" height="61" rx="14.5" fill="white" stroke="#D1D5DB"/>
<path d="M82 156L75 151L68 156V140C68 139.47 68.2107 138.961 68.5858 138.586C68.9609 138.211 69.4696 138 70 138H80C80.5304 138 81.0391 138.211 81.4142 138.586C81.7893 138.961 82 139.47 82 140V156Z" stroke="black" stroke-width="2" stroke-linecap="round" stroke-linejoin="round"/>
<path d="M119.032 155.192C117.352 155.192 115.832 154.824 114.472 154.088C113.128 153.336 112.072 152.312 111.304 151.016C110.536 149.704 110.152 148.232 110.152 146.6C110.152 144.968 110.536 143.504 111.304 142.208C112.072 140.896 113.136 139.872 114.496 139.136C115.856 138.384 117.376 138.008 119.056 138.008C120.368 138.008 121.568 138.232 122.656 138.68C123.744 139.112 124.672 139.76 125.44 140.624L123.88 142.136C122.616 140.808 121.04 140.144 119.152 140.144C117.904 140.144 116.776 140.424 115.768 140.984C114.76 141.544 113.968 142.32 113.392 143.312C112.832 144.288 112.552 145.384 112.552 146.6C112.552 147.816 112.832 148.92 113.392 149.912C113.968 150.888 114.76 151.656 115.768 152.216C116.776 152.776 117.904 153.056 119.152 153.056C121.024 153.056 122.6 152.384 123.88 151.04L125.44 152.552C124.672 153.416 123.736 154.072 122.632 154.52C121.544 154.968 120.344 155.192 119.032 155.192ZM133.437 155.144C132.173 155.144 131.037 154.864 130.029 154.304C129.021 153.744 128.229 152.976 127.653 152C127.093 151.008 126.813 149.888 126.813 148.64C126.813 147.392 127.093 146.28 127.653 145.304C128.229 144.312 129.021 143.544 130.029 143C131.037 142.44 132.173 142.16 133.437 142.16C134.701 142.16 135.829 142.44 136.821 143C137.829 143.544 138.613 144.312 139.173 145.304C139.749 146.28 140.037 147.392 140.037 148.64C140.037 149.888 139.749 151.008 139.173 152C138.613 152.976 137.829 153.744 136.821 154.304C135.829 154.864 134.701 155.144 133.437 155.144ZM133.437 153.128C134.253 153.128 134.981 152.944 135.621 152.576C136.277 152.192 136.789 151.664 137.157 150.992C137.525 150.304 137.709 149.52 137.709 148.64C137.709 147.76 137.525 146.984 137.157 146.312C136.789 145.624 136.277 145.096 135.621 144.728C134.981 144.36 134.253 144.176 133.437 144.176C132.621 144.176 131.885 144.36 131.229 144.728C130.589 145.096 130.077 145.624 129.693 146.312C129.325 146.984 129.141 147.76 129.141 148.64C129.141 149.52 129.325 150.304 129.693 150.992C130.077 151.664 130.589 152.192 131.229 152.576C131.885 152.944 132.621 153.128 133.437 153.128ZM143.223 137.192H145.527V155H143.223V137.192ZM149.926 137.192H152.23V155H149.926V137.192ZM168.125 148.712C168.125 148.888 168.109 149.12 168.077 149.408H157.757C157.901 150.528 158.389 151.432 159.221 152.12C160.069 152.792 161.117 153.128 162.365 153.128C163.885 153.128 165.109 152.616 166.037 151.592L167.309 153.08C166.733 153.752 166.013 154.264 165.149 154.616C164.301 154.968 163.349 155.144 162.293 155.144C160.949 155.144 159.757 154.872 158.717 154.328C157.677 153.768 156.869 152.992 156.293 152C155.733 151.008 155.453 149.888 155.453 148.64C155.453 147.408 155.725 146.296 156.269 145.304C156.829 144.312 157.589 143.544 158.549 143C159.525 142.44 160.621 142.16 161.837 142.16C163.053 142.16 164.133 142.44 165.077 143C166.037 143.544 166.781 144.312 167.309 145.304C167.853 146.296 168.125 147.432 168.125 148.712ZM161.837 144.104C160.733 144.104 159.805 144.44 159.053 145.112C158.317 145.784 157.885 146.664 157.757 147.752H165.917C165.789 146.68 165.349 145.808 164.597 145.136C163.861 144.448 162.941 144.104 161.837 144.104ZM176.869 155.144C175.573 155.144 174.413 154.864 173.389 154.304C172.381 153.744 171.589 152.976 171.013 152C170.437 151.008 170.149 149.888 170.149 148.64C170.149 147.392 170.437 146.28 171.013 145.304C171.589 144.312 172.381 143.544 173.389 143C174.413 142.44 175.573 142.16 176.869 142.16C178.021 142.16 179.045 142.392 179.941 142.856C180.853 143.32 181.557 143.992 182.053 144.872L180.301 146C179.901 145.392 179.405 144.936 178.813 144.632C178.221 144.328 177.565 144.176 176.845 144.176C176.013 144.176 175.261 144.36 174.589 144.728C173.933 145.096 173.413 145.624 173.029 146.312C172.661 146.984 172.477 147.76 172.477 148.64C172.477 149.536 172.661 150.328 173.029 151.016C173.413 151.688 173.933 152.208 174.589 152.576C175.261 152.944 176.013 153.128 176.845 153.128C177.565 153.128 178.221 152.976 178.813 152.672C179.405 152.368 179.901 151.912 180.301 151.304L182.053 152.408C181.557 153.288 180.853 153.968 179.941 154.448C179.045 154.912 178.021 155.144 176.869 155.144ZM192.352 154.256C192.016 154.544 191.6 154.768 191.104 154.928C190.608 155.072 190.096 155.144 189.568 155.144C188.288 155.144 187.296 154.8 186.592 154.112C185.888 153.424 185.536 152.44 185.536 151.16V144.176H183.376V142.28H185.536V139.496H187.84V142.28H191.488V144.176H187.84V151.064C187.84 151.752 188.008 152.28 188.344 152.648C188.696 153.016 189.192 153.2 189.832 153.2C190.536 153.2 191.136 153 191.632 152.6L192.352 154.256Z" fill="black"/>
<defs>
<filter id="filter0_d" x="0" y="0" width="482" height="233" filterUnits="userSpaceOnUse" color-interpolation-filters="sRGB">
<feFlood flood-opacity="0" result="BackgroundImageFix"/>
<feColorMatrix in="SourceAlpha" type="matrix" values="0 0 0 0 0 0 0 0 0 0 0 0 0 0 0 0 0 0 127 0"/>
<feMorphology radius="10" operator="erode" in="SourceAlpha" result="effect1_dropShadow"/>
<feOffset dy="10"/>
<feGaussianBlur stdDeviation="12.5"/>
<feColorMatrix type="matrix" values="0 0 0 0 0 0 0 0 0 0 0 0 0 0 0 0 0 0 0.1 0"/>
<feBlend mode="normal" in2="BackgroundImageFix" result="effect1_dropShadow"/>
<feBlend mode="normal" in="SourceGraphic" in2="effect1_dropShadow" result="shape"/>
</filter>
</defs>
</svg>
