<svg width="477" height="442" viewBox="0 0 477 442" fill="none" xmlns="http://www.w3.org/2000/svg">
<g filter="url(#filter0_d)">
<rect x="15" y="5" width="446.584" height="412" rx="25" fill="white"/>
<rect x="15.5" y="5.5" width="445.584" height="411" rx="24.5" stroke="#D1D5DB"/>
</g>
<path d="M47.688 44.096C46.5787 44.096 45.576 43.8507 44.68 43.36C43.7947 42.8693 43.096 42.192 42.584 41.328C42.0827 40.4533 41.832 39.4773 41.832 38.4C41.832 37.3227 42.0827 36.352 42.584 35.488C43.096 34.6133 43.8 33.9307 44.696 33.44C45.592 32.9493 46.5947 32.704 47.704 32.704C48.536 32.704 49.304 32.8427 50.008 33.12C50.712 33.3973 51.3093 33.8027 51.8 34.336L51.048 35.088C50.1733 34.2027 49.0693 33.76 47.736 33.76C46.8507 33.76 46.0453 33.9627 45.32 34.368C44.5947 34.7733 44.024 35.328 43.608 36.032C43.2027 36.736 43 37.5253 43 38.4C43 39.2747 43.2027 40.064 43.608 40.768C44.024 41.472 44.5947 42.0267 45.32 42.432C46.0453 42.8373 46.8507 43.04 47.736 43.04C49.08 43.04 50.184 42.592 51.048 41.696L51.8 42.448C51.3093 42.9813 50.7067 43.392 49.992 43.68C49.288 43.9573 48.52 44.096 47.688 44.096ZM61.972 44L59.412 40.4C59.124 40.432 58.8253 40.448 58.516 40.448H55.508V44H54.324V32.8H58.516C59.9453 32.8 61.0653 33.1413 61.876 33.824C62.6867 34.5067 63.092 35.4453 63.092 36.64C63.092 37.5147 62.868 38.256 62.42 38.864C61.9827 39.4613 61.3533 39.8933 60.532 40.16L63.268 44H61.972ZM58.484 39.44C59.5933 39.44 60.4413 39.1947 61.028 38.704C61.6147 38.2133 61.908 37.5253 61.908 36.64C61.908 35.7333 61.6147 35.04 61.028 34.56C60.4413 34.0693 59.5933 33.824 58.484 33.824H55.508V39.44H58.484ZM73.8065 42.976V44H65.8865V32.8H73.5665V33.824H67.0705V37.808H72.8625V38.816H67.0705V42.976H73.8065ZM83.6136 41.008H77.3736L76.0296 44H74.7976L79.9176 32.8H81.0856L86.2056 44H84.9576L83.6136 41.008ZM83.1816 40.048L80.4936 34.032L77.8056 40.048H83.1816ZM89.6719 33.824H85.7359V32.8H94.7919V33.824H90.8559V44H89.6719V33.824ZM104.603 42.976V44H96.6834V32.8H104.363V33.824H97.8674V37.808H103.659V38.816H97.8674V42.976H104.603ZM115.766 32.8C117.195 32.8 118.315 33.1413 119.126 33.824C119.937 34.5067 120.342 35.4453 120.342 36.64C120.342 37.8347 119.937 38.7733 119.126 39.456C118.315 40.128 117.195 40.464 115.766 40.464H112.758V44H111.574V32.8H115.766ZM115.734 39.424C116.843 39.424 117.691 39.184 118.278 38.704C118.865 38.2133 119.158 37.5253 119.158 36.64C119.158 35.7333 118.865 35.04 118.278 34.56C117.691 34.0693 116.843 33.824 115.734 33.824H112.758V39.424H115.734ZM130.55 44L127.99 40.4C127.702 40.432 127.403 40.448 127.094 40.448H124.086V44H122.902V32.8H127.094C128.523 32.8 129.643 33.1413 130.454 33.824C131.265 34.5067 131.67 35.4453 131.67 36.64C131.67 37.5147 131.446 38.256 130.998 38.864C130.561 39.4613 129.931 39.8933 129.11 40.16L131.846 44H130.55ZM127.062 39.44C128.171 39.44 129.019 39.1947 129.606 38.704C130.193 38.2133 130.486 37.5253 130.486 36.64C130.486 35.7333 130.193 35.04 129.606 34.56C129.019 34.0693 128.171 33.824 127.062 33.824H124.086V39.44H127.062ZM139.361 44.096C138.251 44.096 137.243 43.8507 136.337 43.36C135.441 42.8587 134.737 42.176 134.225 41.312C133.723 40.448 133.473 39.4773 133.473 38.4C133.473 37.3227 133.723 36.352 134.225 35.488C134.737 34.624 135.441 33.9467 136.337 33.456C137.243 32.9547 138.251 32.704 139.361 32.704C140.47 32.704 141.467 32.9493 142.353 33.44C143.249 33.9307 143.953 34.6133 144.465 35.488C144.977 36.352 145.233 37.3227 145.233 38.4C145.233 39.4773 144.977 40.4533 144.465 41.328C143.953 42.192 143.249 42.8693 142.353 43.36C141.467 43.8507 140.47 44.096 139.361 44.096ZM139.361 43.04C140.246 43.04 141.046 42.8427 141.761 42.448C142.475 42.0427 143.035 41.488 143.441 40.784C143.846 40.0693 144.049 39.2747 144.049 38.4C144.049 37.5253 143.846 36.736 143.441 36.032C143.035 35.3173 142.475 34.7627 141.761 34.368C141.046 33.9627 140.246 33.76 139.361 33.76C138.475 33.76 137.67 33.9627 136.945 34.368C136.23 34.7627 135.665 35.3173 135.249 36.032C134.843 36.736 134.641 37.5253 134.641 38.4C134.641 39.2747 134.843 40.0693 135.249 40.784C135.665 41.488 136.23 42.0427 136.945 42.448C137.67 42.8427 138.475 43.04 139.361 43.04ZM147.887 32.8H152.447C153.631 32.8 154.676 33.04 155.583 33.52C156.489 33.9893 157.193 34.6507 157.695 35.504C158.196 36.3467 158.447 37.312 158.447 38.4C158.447 39.488 158.196 40.4587 157.695 41.312C157.193 42.1547 156.489 42.816 155.583 43.296C154.676 43.7653 153.631 44 152.447 44H147.887V32.8ZM152.383 42.976C153.364 42.976 154.223 42.784 154.959 42.4C155.695 42.0053 156.265 41.4667 156.671 40.784C157.076 40.0907 157.279 39.296 157.279 38.4C157.279 37.504 157.076 36.7147 156.671 36.032C156.265 35.3387 155.695 34.8 154.959 34.416C154.223 34.0213 153.364 33.824 152.383 33.824H149.071V42.976H152.383ZM165.617 44.096C164.167 44.096 163.036 43.68 162.225 42.848C161.415 42.016 161.009 40.8053 161.009 39.216V32.8H162.193V39.168C162.193 40.4693 162.487 41.44 163.073 42.08C163.66 42.72 164.508 43.04 165.617 43.04C166.737 43.04 167.591 42.72 168.177 42.08C168.764 41.44 169.057 40.4693 169.057 39.168V32.8H170.209V39.216C170.209 40.8053 169.804 42.016 168.993 42.848C168.193 43.68 167.068 44.096 165.617 44.096ZM178.641 44.096C177.532 44.096 176.529 43.8507 175.633 43.36C174.748 42.8693 174.049 42.192 173.537 41.328C173.036 40.4533 172.785 39.4773 172.785 38.4C172.785 37.3227 173.036 36.352 173.537 35.488C174.049 34.6133 174.753 33.9307 175.649 33.44C176.545 32.9493 177.548 32.704 178.657 32.704C179.489 32.704 180.257 32.8427 180.961 33.12C181.665 33.3973 182.262 33.8027 182.753 34.336L182.001 35.088C181.126 34.2027 180.022 33.76 178.689 33.76C177.804 33.76 176.998 33.9627 176.273 34.368C175.548 34.7733 174.977 35.328 174.561 36.032C174.156 36.736 173.953 37.5253 173.953 38.4C173.953 39.2747 174.156 40.064 174.561 40.768C174.977 41.472 175.548 42.0267 176.273 42.432C176.998 42.8373 177.804 43.04 178.689 43.04C180.033 43.04 181.137 42.592 182.001 41.696L182.753 42.448C182.262 42.9813 181.66 43.392 180.945 43.68C180.241 43.9573 179.473 44.096 178.641 44.096ZM187.312 33.824H183.377V32.8H192.433V33.824H188.497V44H187.312V33.824Z" fill="black"/>
<rect x="41.5" y="120.5" width="392" height="61" rx="14.5" stroke="#D1D5DB"/>
<path d="M87.184 143.2V160H85.48V146.56L78.88 157.864H78.04L71.44 146.632V160H69.736V143.2H71.2L78.496 155.656L85.72 143.2H87.184ZM102.906 147.376L96.5939 161.512C96.0819 162.696 95.4899 163.536 94.8179 164.032C94.1459 164.528 93.3379 164.776 92.3939 164.776C91.7859 164.776 91.2179 164.68 90.6899 164.488C90.1619 164.296 89.7059 164.008 89.3219 163.624L90.1139 162.352C90.7539 162.992 91.5219 163.312 92.4179 163.312C92.9939 163.312 93.4819 163.152 93.8819 162.832C94.2979 162.512 94.6819 161.968 95.0339 161.2L95.5859 159.976L89.9459 147.376H91.7219L96.4739 158.104L101.226 147.376H102.906ZM118.091 147.28C119.275 147.28 120.347 147.552 121.307 148.096C122.267 148.624 123.019 149.376 123.563 150.352C124.107 151.328 124.379 152.44 124.379 153.688C124.379 154.952 124.107 156.072 123.563 157.048C123.019 158.024 122.267 158.784 121.307 159.328C120.363 159.856 119.291 160.12 118.091 160.12C117.067 160.12 116.139 159.912 115.307 159.496C114.491 159.064 113.819 158.44 113.291 157.624V164.656H111.587V147.376H113.219V149.872C113.731 149.04 114.403 148.4 115.235 147.952C116.083 147.504 117.035 147.28 118.091 147.28ZM117.971 158.608C118.851 158.608 119.651 158.408 120.371 158.008C121.091 157.592 121.651 157.008 122.051 156.256C122.467 155.504 122.675 154.648 122.675 153.688C122.675 152.728 122.467 151.88 122.051 151.144C121.651 150.392 121.091 149.808 120.371 149.392C119.651 148.976 118.851 148.768 117.971 148.768C117.075 148.768 116.267 148.976 115.547 149.392C114.843 149.808 114.283 150.392 113.867 151.144C113.467 151.88 113.267 152.728 113.267 153.688C113.267 154.648 113.467 155.504 113.867 156.256C114.283 157.008 114.843 157.592 115.547 158.008C116.267 158.408 117.075 158.608 117.971 158.608ZM129.485 149.848C129.885 149 130.477 148.36 131.261 147.928C132.061 147.496 133.045 147.28 134.213 147.28V148.936L133.805 148.912C132.477 148.912 131.437 149.32 130.685 150.136C129.933 150.952 129.557 152.096 129.557 153.568V160H127.853V147.376H129.485V149.848ZM142.341 160.12C141.125 160.12 140.029 159.848 139.053 159.304C138.077 158.744 137.309 157.976 136.749 157C136.189 156.024 135.909 154.92 135.909 153.688C135.909 152.456 136.189 151.352 136.749 150.376C137.309 149.4 138.077 148.64 139.053 148.096C140.029 147.552 141.125 147.28 142.341 147.28C143.557 147.28 144.653 147.552 145.629 148.096C146.605 148.64 147.365 149.4 147.909 150.376C148.469 151.352 148.749 152.456 148.749 153.688C148.749 154.92 148.469 156.024 147.909 157C147.365 157.976 146.605 158.744 145.629 159.304C144.653 159.848 143.557 160.12 142.341 160.12ZM142.341 158.608C143.237 158.608 144.037 158.408 144.741 158.008C145.461 157.592 146.021 157.008 146.421 156.256C146.821 155.504 147.021 154.648 147.021 153.688C147.021 152.728 146.821 151.872 146.421 151.12C146.021 150.368 145.461 149.792 144.741 149.392C144.037 148.976 143.237 148.768 142.341 148.768C141.445 148.768 140.637 148.976 139.917 149.392C139.213 149.792 138.653 150.368 138.237 151.12C137.837 151.872 137.637 152.728 137.637 153.688C137.637 154.648 137.837 155.504 138.237 156.256C138.653 157.008 139.213 157.592 139.917 158.008C140.637 158.408 141.445 158.608 142.341 158.608ZM163.748 142.192V160H162.116V157.504C161.604 158.352 160.924 159 160.076 159.448C159.244 159.896 158.3 160.12 157.244 160.12C156.06 160.12 154.988 159.848 154.028 159.304C153.068 158.76 152.316 158 151.772 157.024C151.228 156.048 150.956 154.936 150.956 153.688C150.956 152.44 151.228 151.328 151.772 150.352C152.316 149.376 153.068 148.624 154.028 148.096C154.988 147.552 156.06 147.28 157.244 147.28C158.268 147.28 159.188 147.496 160.004 147.928C160.836 148.344 161.516 148.96 162.044 149.776V142.192H163.748ZM157.388 158.608C158.268 158.608 159.06 158.408 159.764 158.008C160.484 157.592 161.044 157.008 161.444 156.256C161.86 155.504 162.068 154.648 162.068 153.688C162.068 152.728 161.86 151.872 161.444 151.12C161.044 150.368 160.484 149.792 159.764 149.392C159.06 148.976 158.268 148.768 157.388 148.768C156.492 148.768 155.684 148.976 154.964 149.392C154.26 149.792 153.7 150.368 153.284 151.12C152.884 151.872 152.684 152.728 152.684 153.688C152.684 154.648 152.884 155.504 153.284 156.256C153.7 157.008 154.26 157.592 154.964 158.008C155.684 158.408 156.492 158.608 157.388 158.608ZM179.869 147.376V160H178.237V157.696C177.789 158.464 177.173 159.064 176.389 159.496C175.605 159.912 174.709 160.12 173.701 160.12C172.053 160.12 170.749 159.664 169.789 158.752C168.845 157.824 168.373 156.472 168.373 154.696V147.376H170.077V154.528C170.077 155.856 170.405 156.864 171.061 157.552C171.717 158.24 172.653 158.584 173.869 158.584C175.197 158.584 176.245 158.184 177.013 157.384C177.781 156.568 178.165 155.44 178.165 154V147.376H179.869ZM189.874 160.12C188.626 160.12 187.506 159.848 186.514 159.304C185.538 158.76 184.77 158 184.21 157.024C183.65 156.032 183.37 154.92 183.37 153.688C183.37 152.456 183.65 151.352 184.21 150.376C184.77 149.4 185.538 148.64 186.514 148.096C187.506 147.552 188.626 147.28 189.874 147.28C190.962 147.28 191.93 147.496 192.778 147.928C193.642 148.344 194.322 148.96 194.818 149.776L193.546 150.64C193.13 150.016 192.602 149.552 191.962 149.248C191.322 148.928 190.626 148.768 189.874 148.768C188.962 148.768 188.138 148.976 187.402 149.392C186.682 149.792 186.114 150.368 185.698 151.12C185.298 151.872 185.098 152.728 185.098 153.688C185.098 154.664 185.298 155.528 185.698 156.28C186.114 157.016 186.682 157.592 187.402 158.008C188.138 158.408 188.962 158.608 189.874 158.608C190.626 158.608 191.322 158.456 191.962 158.152C192.602 157.848 193.13 157.384 193.546 156.76L194.818 157.624C194.322 158.44 193.642 159.064 192.778 159.496C191.914 159.912 190.946 160.12 189.874 160.12ZM204.954 159.232C204.634 159.52 204.234 159.744 203.754 159.904C203.29 160.048 202.802 160.12 202.29 160.12C201.106 160.12 200.194 159.8 199.554 159.16C198.914 158.52 198.594 157.616 198.594 156.448V148.816H196.338V147.376H198.594V144.616H200.298V147.376H204.138V148.816H200.298V156.352C200.298 157.104 200.482 157.68 200.85 158.08C201.234 158.464 201.778 158.656 202.482 158.656C202.834 158.656 203.17 158.6 203.49 158.488C203.826 158.376 204.114 158.216 204.354 158.008L204.954 159.232Z" fill="black"/>
<path d="M52.312 91.8V103H51L44.28 94.648V103H42.68V91.8H43.992L50.712 100.152V91.8H52.312ZM62.8004 100.2H56.8484L55.6164 103H53.9684L59.0404 91.8H60.6244L65.7124 103H64.0324L62.8004 100.2ZM62.2404 98.92L59.8244 93.432L57.4084 98.92H62.2404ZM77.7671 103L77.7511 94.84L73.7031 101.64H72.9671L68.9191 94.888V103H67.3831V91.8H68.6951L73.3671 99.672L77.9751 91.8H79.2871L79.3031 103H77.7671ZM90.7924 101.608V103H82.6644V91.8H90.5684V93.192H84.2644V96.632H89.8804V97.992H84.2644V101.608H90.7924Z" fill="#6B7280"/>
<rect x="41" y="331" width="393" height="62" rx="15" fill="#FBD259"/>
<path d="M208.032 371.192C206.352 371.192 204.832 370.824 203.472 370.088C202.128 369.336 201.072 368.312 200.304 367.016C199.536 365.704 199.152 364.232 199.152 362.6C199.152 360.968 199.536 359.504 200.304 358.208C201.072 356.896 202.136 355.872 203.496 355.136C204.856 354.384 206.376 354.008 208.056 354.008C209.368 354.008 210.568 354.232 211.656 354.68C212.744 355.112 213.672 355.76 214.44 356.624L212.88 358.136C211.616 356.808 210.04 356.144 208.152 356.144C206.904 356.144 205.776 356.424 204.768 356.984C203.76 357.544 202.968 358.32 202.392 359.312C201.832 360.288 201.552 361.384 201.552 362.6C201.552 363.816 201.832 364.92 202.392 365.912C202.968 366.888 203.76 367.656 204.768 368.216C205.776 368.776 206.904 369.056 208.152 369.056C210.024 369.056 211.6 368.384 212.88 367.04L214.44 368.552C213.672 369.416 212.736 370.072 211.632 370.52C210.544 370.968 209.344 371.192 208.032 371.192ZM219.736 360.416C220.136 359.68 220.728 359.12 221.512 358.736C222.296 358.352 223.248 358.16 224.368 358.16V360.392C224.24 360.376 224.064 360.368 223.84 360.368C222.592 360.368 221.608 360.744 220.888 361.496C220.184 362.232 219.832 363.288 219.832 364.664V371H217.528V358.28H219.736V360.416ZM238.586 364.712C238.586 364.888 238.57 365.12 238.538 365.408H228.218C228.362 366.528 228.85 367.432 229.682 368.12C230.53 368.792 231.578 369.128 232.826 369.128C234.346 369.128 235.57 368.616 236.498 367.592L237.77 369.08C237.194 369.752 236.474 370.264 235.61 370.616C234.762 370.968 233.81 371.144 232.754 371.144C231.41 371.144 230.218 370.872 229.178 370.328C228.138 369.768 227.33 368.992 226.754 368C226.194 367.008 225.914 365.888 225.914 364.64C225.914 363.408 226.186 362.296 226.73 361.304C227.29 360.312 228.05 359.544 229.01 359C229.986 358.44 231.082 358.16 232.298 358.16C233.514 358.16 234.594 358.44 235.538 359C236.498 359.544 237.242 360.312 237.77 361.304C238.314 362.296 238.586 363.432 238.586 364.712ZM232.298 360.104C231.194 360.104 230.266 360.44 229.514 361.112C228.778 361.784 228.346 362.664 228.218 363.752H236.378C236.25 362.68 235.81 361.808 235.058 361.136C234.322 360.448 233.402 360.104 232.298 360.104ZM246.066 358.16C247.826 358.16 249.17 358.592 250.098 359.456C251.042 360.32 251.514 361.608 251.514 363.32V371H249.33V369.32C248.946 369.912 248.394 370.368 247.674 370.688C246.97 370.992 246.13 371.144 245.154 371.144C243.73 371.144 242.586 370.8 241.722 370.112C240.874 369.424 240.45 368.52 240.45 367.4C240.45 366.28 240.858 365.384 241.674 364.712C242.49 364.024 243.786 363.68 245.562 363.68H249.21V363.224C249.21 362.232 248.922 361.472 248.346 360.944C247.77 360.416 246.922 360.152 245.802 360.152C245.05 360.152 244.314 360.28 243.594 360.536C242.874 360.776 242.266 361.104 241.77 361.52L240.81 359.792C241.466 359.264 242.25 358.864 243.162 358.592C244.074 358.304 245.042 358.16 246.066 358.16ZM245.538 369.368C246.418 369.368 247.178 369.176 247.818 368.792C248.458 368.392 248.922 367.832 249.21 367.112V365.336H245.658C243.706 365.336 242.73 365.992 242.73 367.304C242.73 367.944 242.978 368.448 243.474 368.816C243.97 369.184 244.658 369.368 245.538 369.368ZM262.93 370.256C262.594 370.544 262.178 370.768 261.682 370.928C261.186 371.072 260.674 371.144 260.146 371.144C258.866 371.144 257.874 370.8 257.17 370.112C256.466 369.424 256.114 368.44 256.114 367.16V360.176H253.954V358.28H256.114V355.496H258.418V358.28H262.066V360.176H258.418V367.064C258.418 367.752 258.586 368.28 258.922 368.648C259.274 369.016 259.77 369.2 260.41 369.2C261.114 369.2 261.714 369 262.21 368.6L262.93 370.256ZM276.789 364.712C276.789 364.888 276.773 365.12 276.741 365.408H266.421C266.565 366.528 267.053 367.432 267.885 368.12C268.733 368.792 269.781 369.128 271.029 369.128C272.549 369.128 273.773 368.616 274.701 367.592L275.973 369.08C275.397 369.752 274.677 370.264 273.813 370.616C272.965 370.968 272.013 371.144 270.957 371.144C269.613 371.144 268.421 370.872 267.381 370.328C266.341 369.768 265.533 368.992 264.957 368C264.397 367.008 264.117 365.888 264.117 364.64C264.117 363.408 264.389 362.296 264.933 361.304C265.493 360.312 266.253 359.544 267.213 359C268.189 358.44 269.285 358.16 270.501 358.16C271.717 358.16 272.797 358.44 273.741 359C274.701 359.544 275.445 360.312 275.973 361.304C276.517 362.296 276.789 363.432 276.789 364.712ZM270.501 360.104C269.397 360.104 268.469 360.44 267.717 361.112C266.981 361.784 266.549 362.664 266.421 363.752H274.581C274.453 362.68 274.013 361.808 273.261 361.136C272.525 360.448 271.605 360.104 270.501 360.104Z" fill="black"/>
<rect x="41.5" y="232.5" width="227" height="61" rx="14.5" stroke="#D1D5DB"/>
<rect x="289" y="232" width="145" height="62" rx="15" fill="#E5E7EB"/>
<path d="M319.16 263.504H321.464V270.056C320.632 270.744 319.664 271.272 318.56 271.64C317.456 272.008 316.304 272.192 315.104 272.192C313.408 272.192 311.88 271.824 310.52 271.088C309.16 270.336 308.088 269.312 307.304 268.016C306.536 266.704 306.152 265.232 306.152 263.6C306.152 261.968 306.536 260.496 307.304 259.184C308.088 257.872 309.16 256.848 310.52 256.112C311.896 255.376 313.44 255.008 315.152 255.008C316.496 255.008 317.712 255.232 318.8 255.68C319.904 256.112 320.84 256.752 321.608 257.6L320.12 259.088C318.776 257.792 317.152 257.144 315.248 257.144C313.968 257.144 312.816 257.424 311.792 257.984C310.784 258.528 309.992 259.296 309.416 260.288C308.84 261.264 308.552 262.368 308.552 263.6C308.552 264.816 308.84 265.92 309.416 266.912C309.992 267.888 310.784 268.656 311.792 269.216C312.816 269.776 313.96 270.056 315.224 270.056C316.728 270.056 318.04 269.696 319.16 268.976V263.504ZM337.219 265.712C337.219 265.888 337.203 266.12 337.171 266.408H326.851C326.995 267.528 327.483 268.432 328.315 269.12C329.163 269.792 330.211 270.128 331.459 270.128C332.979 270.128 334.203 269.616 335.131 268.592L336.403 270.08C335.827 270.752 335.107 271.264 334.243 271.616C333.395 271.968 332.443 272.144 331.387 272.144C330.043 272.144 328.851 271.872 327.811 271.328C326.771 270.768 325.963 269.992 325.387 269C324.827 268.008 324.547 266.888 324.547 265.64C324.547 264.408 324.819 263.296 325.363 262.304C325.923 261.312 326.683 260.544 327.643 260C328.619 259.44 329.715 259.16 330.931 259.16C332.147 259.16 333.227 259.44 334.171 260C335.131 260.544 335.875 261.312 336.403 262.304C336.947 263.296 337.219 264.432 337.219 265.712ZM330.931 261.104C329.827 261.104 328.899 261.44 328.147 262.112C327.411 262.784 326.979 263.664 326.851 264.752H335.011C334.883 263.68 334.443 262.808 333.691 262.136C332.955 261.448 332.035 261.104 330.931 261.104ZM347.21 259.16C348.826 259.16 350.106 259.632 351.05 260.576C352.01 261.504 352.49 262.872 352.49 264.68V272H350.186V264.944C350.186 263.712 349.89 262.784 349.298 262.16C348.706 261.536 347.858 261.224 346.754 261.224C345.506 261.224 344.522 261.592 343.802 262.328C343.082 263.048 342.722 264.088 342.722 265.448V272H340.418V259.28H342.626V261.2C343.09 260.544 343.714 260.04 344.498 259.688C345.298 259.336 346.202 259.16 347.21 259.16ZM368.321 265.712C368.321 265.888 368.305 266.12 368.273 266.408H357.953C358.097 267.528 358.585 268.432 359.417 269.12C360.265 269.792 361.313 270.128 362.561 270.128C364.081 270.128 365.305 269.616 366.233 268.592L367.505 270.08C366.929 270.752 366.209 271.264 365.345 271.616C364.497 271.968 363.545 272.144 362.489 272.144C361.145 272.144 359.953 271.872 358.913 271.328C357.873 270.768 357.065 269.992 356.489 269C355.929 268.008 355.649 266.888 355.649 265.64C355.649 264.408 355.921 263.296 356.465 262.304C357.025 261.312 357.785 260.544 358.745 260C359.721 259.44 360.817 259.16 362.033 259.16C363.249 259.16 364.329 259.44 365.273 260C366.233 260.544 366.977 261.312 367.505 262.304C368.049 263.296 368.321 264.432 368.321 265.712ZM362.033 261.104C360.929 261.104 360.001 261.44 359.249 262.112C358.513 262.784 358.081 263.664 357.953 264.752H366.113C365.985 263.68 365.545 262.808 364.793 262.136C364.057 261.448 363.137 261.104 362.033 261.104ZM373.728 261.416C374.128 260.68 374.72 260.12 375.504 259.736C376.288 259.352 377.24 259.16 378.36 259.16V261.392C378.232 261.376 378.056 261.368 377.832 261.368C376.584 261.368 375.6 261.744 374.88 262.496C374.176 263.232 373.824 264.288 373.824 265.664V272H371.52V259.28H373.728V261.416ZM385.808 259.16C387.568 259.16 388.912 259.592 389.84 260.456C390.784 261.32 391.256 262.608 391.256 264.32V272H389.072V270.32C388.688 270.912 388.136 271.368 387.416 271.688C386.712 271.992 385.872 272.144 384.896 272.144C383.472 272.144 382.328 271.8 381.464 271.112C380.616 270.424 380.192 269.52 380.192 268.4C380.192 267.28 380.6 266.384 381.416 265.712C382.232 265.024 383.528 264.68 385.304 264.68H388.952V264.224C388.952 263.232 388.664 262.472 388.088 261.944C387.512 261.416 386.664 261.152 385.544 261.152C384.792 261.152 384.056 261.28 383.336 261.536C382.616 261.776 382.008 262.104 381.512 262.52L380.552 260.792C381.208 260.264 381.992 259.864 382.904 259.592C383.816 259.304 384.784 259.16 385.808 259.16ZM385.28 270.368C386.16 270.368 386.92 270.176 387.56 269.792C388.2 269.392 388.664 268.832 388.952 268.112V266.336H385.4C383.448 266.336 382.472 266.992 382.472 268.304C382.472 268.944 382.72 269.448 383.216 269.816C383.712 270.184 384.4 270.368 385.28 270.368ZM402.672 271.256C402.336 271.544 401.92 271.768 401.424 271.928C400.928 272.072 400.416 272.144 399.888 272.144C398.608 272.144 397.616 271.8 396.912 271.112C396.208 270.424 395.856 269.44 395.856 268.16V261.176H393.696V259.28H395.856V256.496H398.16V259.28H401.808V261.176H398.16V268.064C398.16 268.752 398.328 269.28 398.664 269.648C399.016 270.016 399.512 270.2 400.152 270.2C400.856 270.2 401.456 270 401.952 269.6L402.672 271.256ZM416.532 265.712C416.532 265.888 416.516 266.12 416.484 266.408H406.164C406.308 267.528 406.796 268.432 407.628 269.12C408.476 269.792 409.524 270.128 410.772 270.128C412.292 270.128 413.516 269.616 414.444 268.592L415.716 270.08C415.14 270.752 414.42 271.264 413.556 271.616C412.708 271.968 411.756 272.144 410.7 272.144C409.356 272.144 408.164 271.872 407.124 271.328C406.084 270.768 405.276 269.992 404.7 269C404.14 268.008 403.86 266.888 403.86 265.64C403.86 264.408 404.132 263.296 404.676 262.304C405.236 261.312 405.996 260.544 406.956 260C407.932 259.44 409.028 259.16 410.244 259.16C411.46 259.16 412.54 259.44 413.484 260C414.444 260.544 415.188 261.312 415.716 262.304C416.26 263.296 416.532 264.432 416.532 265.712ZM410.244 261.104C409.14 261.104 408.212 261.44 407.46 262.112C406.724 262.784 406.292 263.664 406.164 264.752H414.324C414.196 263.68 413.756 262.808 413.004 262.136C412.268 261.448 411.348 261.104 410.244 261.104Z" fill="black"/>
<path d="M74.32 251.792H75.88L67.96 274.4H66.4L74.32 251.792ZM82.2784 259.28C83.4624 259.28 84.5344 259.552 85.4944 260.096C86.4544 260.624 87.2064 261.376 87.7504 262.352C88.2944 263.328 88.5664 264.44 88.5664 265.688C88.5664 266.952 88.2944 268.072 87.7504 269.048C87.2064 270.024 86.4544 270.784 85.4944 271.328C84.5504 271.856 83.4784 272.12 82.2784 272.12C81.2544 272.12 80.3264 271.912 79.4944 271.496C78.6784 271.064 78.0064 270.44 77.4784 269.624V276.656H75.7744V259.376H77.4064V261.872C77.9184 261.04 78.5904 260.4 79.4224 259.952C80.2704 259.504 81.2224 259.28 82.2784 259.28ZM82.1584 270.608C83.0384 270.608 83.8384 270.408 84.5584 270.008C85.2784 269.592 85.8384 269.008 86.2384 268.256C86.6544 267.504 86.8624 266.648 86.8624 265.688C86.8624 264.728 86.6544 263.88 86.2384 263.144C85.8384 262.392 85.2784 261.808 84.5584 261.392C83.8384 260.976 83.0384 260.768 82.1584 260.768C81.2624 260.768 80.4544 260.976 79.7344 261.392C79.0304 261.808 78.4704 262.392 78.0544 263.144C77.6544 263.88 77.4544 264.728 77.4544 265.688C77.4544 266.648 77.6544 267.504 78.0544 268.256C78.4704 269.008 79.0304 269.592 79.7344 270.008C80.4544 270.408 81.2624 270.608 82.1584 270.608ZM96.9841 251.792H98.5441L90.6241 274.4H89.0641L96.9841 251.792ZM114.183 259.28C115.767 259.28 117.007 259.736 117.903 260.648C118.815 261.56 119.271 262.904 119.271 264.68V272H117.567V264.848C117.567 263.536 117.247 262.536 116.607 261.848C115.983 261.16 115.095 260.816 113.943 260.816C112.631 260.816 111.599 261.224 110.847 262.04C110.095 262.84 109.719 263.952 109.719 265.376V272H108.015V264.848C108.015 263.536 107.695 262.536 107.055 261.848C106.431 261.16 105.535 260.816 104.367 260.816C103.071 260.816 102.039 261.224 101.271 262.04C100.519 262.84 100.143 263.952 100.143 265.376V272H98.4385V259.376H100.071V261.68C100.519 260.912 101.143 260.32 101.943 259.904C102.743 259.488 103.663 259.28 104.703 259.28C105.759 259.28 106.671 259.504 107.439 259.952C108.223 260.4 108.807 261.064 109.191 261.944C109.655 261.112 110.319 260.464 111.183 260C112.063 259.52 113.063 259.28 114.183 259.28ZM134.265 259.376L127.953 273.512C127.441 274.696 126.849 275.536 126.177 276.032C125.505 276.528 124.697 276.776 123.753 276.776C123.145 276.776 122.577 276.68 122.049 276.488C121.521 276.296 121.065 276.008 120.681 275.624L121.473 274.352C122.113 274.992 122.881 275.312 123.777 275.312C124.353 275.312 124.841 275.152 125.241 274.832C125.657 274.512 126.041 273.968 126.393 273.2L126.945 271.976L121.305 259.376H123.081L127.833 270.104L132.585 259.376H134.265ZM135.448 264.752H141.736V266.24H135.448V264.752ZM152.052 259.28C153.236 259.28 154.308 259.552 155.268 260.096C156.228 260.624 156.98 261.376 157.524 262.352C158.068 263.328 158.34 264.44 158.34 265.688C158.34 266.952 158.068 268.072 157.524 269.048C156.98 270.024 156.228 270.784 155.268 271.328C154.324 271.856 153.252 272.12 152.052 272.12C151.028 272.12 150.1 271.912 149.268 271.496C148.452 271.064 147.78 270.44 147.252 269.624V276.656H145.548V259.376H147.18V261.872C147.692 261.04 148.364 260.4 149.196 259.952C150.044 259.504 150.996 259.28 152.052 259.28ZM151.932 270.608C152.812 270.608 153.612 270.408 154.332 270.008C155.052 269.592 155.612 269.008 156.012 268.256C156.428 267.504 156.636 266.648 156.636 265.688C156.636 264.728 156.428 263.88 156.012 263.144C155.612 262.392 155.052 261.808 154.332 261.392C153.612 260.976 152.812 260.768 151.932 260.768C151.036 260.768 150.228 260.976 149.508 261.392C148.804 261.808 148.244 262.392 147.828 263.144C147.428 263.88 147.228 264.728 147.228 265.688C147.228 266.648 147.428 267.504 147.828 268.256C148.244 269.008 148.804 269.592 149.508 270.008C150.228 270.408 151.036 270.608 151.932 270.608ZM163.446 261.848C163.846 261 164.438 260.36 165.222 259.928C166.022 259.496 167.006 259.28 168.174 259.28V260.936L167.766 260.912C166.438 260.912 165.398 261.32 164.646 262.136C163.894 262.952 163.518 264.096 163.518 265.568V272H161.814V259.376H163.446V261.848ZM176.302 272.12C175.086 272.12 173.99 271.848 173.014 271.304C172.038 270.744 171.27 269.976 170.71 269C170.15 268.024 169.87 266.92 169.87 265.688C169.87 264.456 170.15 263.352 170.71 262.376C171.27 261.4 172.038 260.64 173.014 260.096C173.99 259.552 175.086 259.28 176.302 259.28C177.518 259.28 178.614 259.552 179.59 260.096C180.566 260.64 181.326 261.4 181.87 262.376C182.43 263.352 182.71 264.456 182.71 265.688C182.71 266.92 182.43 268.024 181.87 269C181.326 269.976 180.566 270.744 179.59 271.304C178.614 271.848 177.518 272.12 176.302 272.12ZM176.302 270.608C177.198 270.608 177.998 270.408 178.702 270.008C179.422 269.592 179.982 269.008 180.382 268.256C180.782 267.504 180.982 266.648 180.982 265.688C180.982 264.728 180.782 263.872 180.382 263.12C179.982 262.368 179.422 261.792 178.702 261.392C177.998 260.976 177.198 260.768 176.302 260.768C175.406 260.768 174.598 260.976 173.878 261.392C173.174 261.792 172.614 262.368 172.198 263.12C171.798 263.872 171.598 264.728 171.598 265.688C171.598 266.648 171.798 267.504 172.198 268.256C172.614 269.008 173.174 269.592 173.878 270.008C174.598 270.408 175.406 270.608 176.302 270.608ZM197.709 254.192V272H196.077V269.504C195.565 270.352 194.885 271 194.037 271.448C193.205 271.896 192.261 272.12 191.205 272.12C190.021 272.12 188.949 271.848 187.989 271.304C187.029 270.76 186.277 270 185.733 269.024C185.189 268.048 184.917 266.936 184.917 265.688C184.917 264.44 185.189 263.328 185.733 262.352C186.277 261.376 187.029 260.624 187.989 260.096C188.949 259.552 190.021 259.28 191.205 259.28C192.229 259.28 193.149 259.496 193.965 259.928C194.797 260.344 195.477 260.96 196.005 261.776V254.192H197.709ZM191.349 270.608C192.229 270.608 193.021 270.408 193.725 270.008C194.445 269.592 195.005 269.008 195.405 268.256C195.821 267.504 196.029 266.648 196.029 265.688C196.029 264.728 195.821 263.872 195.405 263.12C195.005 262.368 194.445 261.792 193.725 261.392C193.021 260.976 192.229 260.768 191.349 260.768C190.453 260.768 189.645 260.976 188.925 261.392C188.221 261.792 187.661 262.368 187.245 263.12C186.845 263.872 186.645 264.728 186.645 265.688C186.645 266.648 186.845 267.504 187.245 268.256C187.661 269.008 188.221 269.592 188.925 270.008C189.645 270.408 190.453 270.608 191.349 270.608ZM213.83 259.376V272H212.198V269.696C211.75 270.464 211.134 271.064 210.35 271.496C209.566 271.912 208.67 272.12 207.662 272.12C206.014 272.12 204.71 271.664 203.75 270.752C202.806 269.824 202.334 268.472 202.334 266.696V259.376H204.038V266.528C204.038 267.856 204.366 268.864 205.022 269.552C205.678 270.24 206.614 270.584 207.83 270.584C209.158 270.584 210.206 270.184 210.974 269.384C211.742 268.568 212.126 267.44 212.126 266V259.376H213.83ZM223.835 272.12C222.587 272.12 221.467 271.848 220.475 271.304C219.499 270.76 218.731 270 218.171 269.024C217.611 268.032 217.331 266.92 217.331 265.688C217.331 264.456 217.611 263.352 218.171 262.376C218.731 261.4 219.499 260.64 220.475 260.096C221.467 259.552 222.587 259.28 223.835 259.28C224.923 259.28 225.891 259.496 226.739 259.928C227.603 260.344 228.283 260.96 228.779 261.776L227.507 262.64C227.091 262.016 226.563 261.552 225.923 261.248C225.283 260.928 224.587 260.768 223.835 260.768C222.923 260.768 222.099 260.976 221.363 261.392C220.643 261.792 220.075 262.368 219.659 263.12C219.259 263.872 219.059 264.728 219.059 265.688C219.059 266.664 219.259 267.528 219.659 268.28C220.075 269.016 220.643 269.592 221.363 270.008C222.099 270.408 222.923 270.608 223.835 270.608C224.587 270.608 225.283 270.456 225.923 270.152C226.563 269.848 227.091 269.384 227.507 268.76L228.779 269.624C228.283 270.44 227.603 271.064 226.739 271.496C225.875 271.912 224.907 272.12 223.835 272.12ZM238.915 271.232C238.595 271.52 238.195 271.744 237.715 271.904C237.251 272.048 236.763 272.12 236.251 272.12C235.067 272.12 234.155 271.8 233.515 271.16C232.875 270.52 232.555 269.616 232.555 268.448V260.816H230.299V259.376H232.555V256.616H234.259V259.376H238.099V260.816H234.259V268.352C234.259 269.104 234.443 269.68 234.811 270.08C235.195 270.464 235.739 270.656 236.443 270.656C236.795 270.656 237.131 270.6 237.451 270.488C237.787 270.376 238.075 270.216 238.315 270.008L238.915 271.232Z" fill="black"/>
<path d="M45.944 220.128C45.1013 220.128 44.2853 220 43.496 219.744C42.7173 219.477 42.104 219.136 41.656 218.72L42.248 217.472C42.6747 217.856 43.2187 218.171 43.88 218.416C44.552 218.651 45.24 218.768 45.944 218.768C46.872 218.768 47.5653 218.613 48.024 218.304C48.4827 217.984 48.712 217.563 48.712 217.04C48.712 216.656 48.584 216.347 48.328 216.112C48.0827 215.867 47.7733 215.68 47.4 215.552C47.0373 215.424 46.52 215.28 45.848 215.12C45.0053 214.917 44.3227 214.715 43.8 214.512C43.288 214.309 42.8453 214 42.472 213.584C42.1093 213.157 41.928 212.587 41.928 211.872C41.928 211.275 42.0827 210.736 42.392 210.256C42.712 209.776 43.192 209.392 43.832 209.104C44.472 208.816 45.2667 208.672 46.216 208.672C46.8773 208.672 47.528 208.757 48.168 208.928C48.808 209.099 49.3573 209.344 49.816 209.664L49.288 210.944C48.8187 210.645 48.3173 210.421 47.784 210.272C47.2507 210.112 46.728 210.032 46.216 210.032C45.3093 210.032 44.6267 210.197 44.168 210.528C43.72 210.859 43.496 211.285 43.496 211.808C43.496 212.192 43.624 212.507 43.88 212.752C44.136 212.987 44.4507 213.173 44.824 213.312C45.208 213.44 45.7253 213.579 46.376 213.728C47.2187 213.931 47.896 214.133 48.408 214.336C48.92 214.539 49.3573 214.848 49.72 215.264C50.0933 215.68 50.28 216.24 50.28 216.944C50.28 217.531 50.12 218.069 49.8 218.56C49.48 219.04 48.9947 219.424 48.344 219.712C47.6933 219.989 46.8933 220.128 45.944 220.128ZM52.6175 208.8H54.2175V218.608H60.2815V220H52.6175V208.8ZM66.57 220.128C65.0767 220.128 63.914 219.701 63.082 218.848C62.25 217.995 61.834 216.768 61.834 215.168V208.8H63.434V215.104C63.434 217.504 64.4847 218.704 66.586 218.704C67.61 218.704 68.394 218.411 68.938 217.824C69.482 217.227 69.754 216.32 69.754 215.104V208.8H71.306V215.168C71.306 216.779 70.89 218.011 70.058 218.864C69.226 219.707 68.0633 220.128 66.57 220.128ZM82.3463 214.336H83.8823V218.704C83.3276 219.163 82.6823 219.515 81.9462 219.76C81.2103 220.005 80.4423 220.128 79.6423 220.128C78.5116 220.128 77.4929 219.883 76.5863 219.392C75.6796 218.891 74.9649 218.208 74.4423 217.344C73.9303 216.469 73.6743 215.488 73.6743 214.4C73.6743 213.312 73.9303 212.331 74.4423 211.456C74.9649 210.581 75.6796 209.899 76.5863 209.408C77.5036 208.917 78.5329 208.672 79.6743 208.672C80.5703 208.672 81.3809 208.821 82.1063 209.12C82.8423 209.408 83.4663 209.835 83.9783 210.4L82.9863 211.392C82.0903 210.528 81.0076 210.096 79.7383 210.096C78.8849 210.096 78.1169 210.283 77.4343 210.656C76.7623 211.019 76.2343 211.531 75.8503 212.192C75.4663 212.843 75.2743 213.579 75.2743 214.4C75.2743 215.211 75.4663 215.947 75.8503 216.608C76.2343 217.259 76.7623 217.771 77.4343 218.144C78.1169 218.517 78.8796 218.704 79.7223 218.704C80.7249 218.704 81.5996 218.464 82.3463 217.984V214.336Z" fill="#6B7280"/>
<defs>
<filter id="filter0_d" x="0" y="0" width="476.584" height="442" filterUnits="userSpaceOnUse" color-interpolation-filters="sRGB">
<feFlood flood-opacity="0" result="BackgroundImageFix"/>
<feColorMatrix in="SourceAlpha" type="matrix" values="0 0 0 0 0 0 0 0 0 0 0 0 0 0 0 0 0 0 127 0"/>
<feMorphology radius="10" operator="erode" in="SourceAlpha" result="effect1_dropShadow"/>
<feOffset dy="10"/>
<feGaussianBlur stdDeviation="12.5"/>
<feColorMatrix type="matrix" values="0 0 0 0 0 0 0 0 0 0 0 0 0 0 0 0 0 0 0.1 0"/>
<feBlend mode="normal" in2="BackgroundImageFix" result="effect1_dropShadow"/>
<feBlend mode="normal" in="SourceGraphic" in2="effect1_dropShadow" result="shape"/>
</filter>
</defs>
</svg>
