<svg width="477" height="296" viewBox="0 0 477 296" fill="none" xmlns="http://www.w3.org/2000/svg">
<g filter="url(#filter0_d)">
<rect x="15" y="5" width="447" height="266" rx="25" fill="white"/>
<rect x="15.5" y="5.5" width="446" height="265" rx="24.5" stroke="#D1D5DB"/>
</g>
<g filter="url(#filter1_d)">
<rect x="49.8801" y="32.8801" width="96.812" height="96.812" rx="15" fill="white"/>
<rect x="50.3801" y="33.3801" width="95.812" height="95.812" rx="14.5" stroke="#D1D5DB"/>
</g>
<path d="M103.228 56.5789H83.4617C82.1512 56.5789 80.8943 57.0995 79.9676 58.0262C79.0409 58.9529 78.5203 60.2097 78.5203 61.5203V101.052C78.5203 102.362 79.0409 103.619 79.9676 104.546C80.8943 105.473 82.1512 105.993 83.4617 105.993H113.11C114.421 105.993 115.678 105.473 116.605 104.546C117.531 103.619 118.052 102.362 118.052 101.052V71.4032L103.228 56.5789Z" stroke="black" stroke-width="2" stroke-linecap="round" stroke-linejoin="round"/>
<path d="M103.228 56.5789V71.4032H118.052" stroke="black" stroke-width="2" stroke-linecap="round" stroke-linejoin="round"/>
<path d="M108.169 83.7568H88.4032" stroke="black" stroke-width="2" stroke-linecap="round" stroke-linejoin="round"/>
<path d="M108.169 93.6396H88.4032" stroke="black" stroke-width="2" stroke-linecap="round" stroke-linejoin="round"/>
<path d="M93.3446 73.874H90.8739H88.4032" stroke="black" stroke-width="2" stroke-linecap="round" stroke-linejoin="round"/>
<g filter="url(#filter2_d)">
<rect x="162.534" y="32" width="96.812" height="96.812" rx="15" fill="white"/>
<rect x="163.034" y="32.5" width="95.812" height="95.812" rx="14.5" stroke="#D1D5DB"/>
</g>
<path d="M236.981 66.6193C236.688 65.4467 236.09 64.3723 235.249 63.5047C234.407 62.6371 233.351 62.0069 232.188 61.6778C227.939 60.6401 210.94 60.6401 210.94 60.6401C210.94 60.6401 193.941 60.6401 189.692 61.7767C188.529 62.1057 187.473 62.7359 186.631 63.6035C185.79 64.4712 185.192 65.5455 184.899 66.7181C184.121 71.0309 183.74 75.4059 183.762 79.7882C183.734 84.2035 184.115 88.6119 184.899 92.9572C185.222 94.0933 185.833 95.1268 186.673 95.9578C187.513 96.7888 188.552 97.3892 189.692 97.701C193.941 98.8375 210.94 98.8375 210.94 98.8375C210.94 98.8375 227.939 98.8375 232.188 97.701C233.351 97.3719 234.407 96.7417 235.249 95.8741C236.09 95.0065 236.688 93.9321 236.981 92.7595C237.753 88.4792 238.134 84.1375 238.118 79.7882C238.146 75.3729 237.765 70.9645 236.981 66.6193V66.6193Z" stroke="black" stroke-width="2" stroke-linecap="round" stroke-linejoin="round"/>
<path d="M205.381 87.8675L219.588 79.7882L205.381 71.709V87.8675Z" stroke="black" stroke-width="2" stroke-linecap="round" stroke-linejoin="round"/>
<g filter="url(#filter3_d)">
<rect x="275.188" y="32.8801" width="96.812" height="96.812" rx="15" fill="white"/>
<rect x="275.688" y="33.3801" width="95.812" height="95.812" rx="14.5" stroke="#D1D5DB"/>
</g>
<path d="M348.03 78.7403V81.0135C348.027 86.3418 346.302 91.5264 343.111 95.794C339.921 100.062 335.437 103.184 330.327 104.694C325.217 106.205 319.756 106.024 314.758 104.177C309.76 102.331 305.493 98.9179 302.593 94.448C299.692 89.978 298.315 84.6903 298.666 79.3736C299.016 74.0568 301.076 68.9958 304.538 64.9454C308 60.8949 312.678 58.0721 317.876 56.8978C323.073 55.7235 328.511 56.2608 333.378 58.4294" stroke="black" stroke-width="2" stroke-linecap="round" stroke-linejoin="round"/>
<path d="M348.03 61.2458L323.321 85.9796L315.908 78.5669" stroke="black" stroke-width="2" stroke-linecap="round" stroke-linejoin="round"/>
<g filter="url(#filter4_d)">
<rect x="109" y="147.294" width="96.812" height="96.812" rx="15" fill="white"/>
<rect x="109.5" y="147.794" width="95.812" height="95.812" rx="14.5" stroke="#D1D5DB"/>
</g>
<path d="M157.133 220.136C170.78 220.136 181.842 209.074 181.842 195.427C181.842 181.781 170.78 170.718 157.133 170.718C143.487 170.718 132.424 181.781 132.424 195.427C132.424 209.074 143.487 220.136 157.133 220.136Z" stroke="black" stroke-width="2" stroke-linecap="round" stroke-linejoin="round"/>
<path d="M147.25 200.369C147.25 200.369 150.956 205.311 157.133 205.311C163.31 205.311 167.017 200.369 167.017 200.369" stroke="black" stroke-width="2" stroke-linecap="round" stroke-linejoin="round"/>
<path d="M149.72 188.014H149.745" stroke="black" stroke-width="2" stroke-linecap="round" stroke-linejoin="round"/>
<path d="M164.546 188.014H164.57" stroke="black" stroke-width="2" stroke-linecap="round" stroke-linejoin="round"/>
<g filter="url(#filter5_d)">
<rect x="221.654" y="146.414" width="96.812" height="96.812" rx="15" fill="white"/>
<rect x="222.154" y="146.914" width="95.812" height="95.812" rx="14.5" stroke="#D1D5DB"/>
</g>
<path d="M242.607 179.722V219.256L259.903 209.373L279.671 219.256L296.967 209.373V169.838L279.671 179.722L259.903 169.838L242.607 179.722Z" stroke="black" stroke-width="2" stroke-linecap="round" stroke-linejoin="round"/>
<path d="M259.903 169.838V209.373" stroke="black" stroke-width="2" stroke-linecap="round" stroke-linejoin="round"/>
<path d="M279.671 179.722V219.256" stroke="black" stroke-width="2" stroke-linecap="round" stroke-linejoin="round"/>
<g filter="url(#filter6_d)">
<rect x="334.308" y="148.174" width="96.812" height="96.812" rx="15" fill="white"/>
<rect x="334.808" y="148.674" width="95.812" height="95.812" rx="14.5" stroke="#D1D5DB"/>
</g>
<path d="M402.801 196.901C405.583 194.119 407.146 190.346 407.146 186.412C407.146 182.477 405.583 178.704 402.801 175.923C400.02 173.141 396.247 171.578 392.312 171.578C388.378 171.578 384.605 173.141 381.823 175.923L365.145 192.601V213.604H386.147L402.801 196.901Z" stroke="black" stroke-width="2" stroke-linecap="round" stroke-linejoin="round"/>
<path d="M392.325 186.424L357.732 221.017" stroke="black" stroke-width="2" stroke-linecap="round" stroke-linejoin="round"/>
<path d="M396.031 203.72H375.028" stroke="black" stroke-width="2" stroke-linecap="round" stroke-linejoin="round"/>
<defs>
<filter id="filter0_d" x="0" y="0" width="477" height="296" filterUnits="userSpaceOnUse" color-interpolation-filters="sRGB">
<feFlood flood-opacity="0" result="BackgroundImageFix"/>
<feColorMatrix in="SourceAlpha" type="matrix" values="0 0 0 0 0 0 0 0 0 0 0 0 0 0 0 0 0 0 127 0"/>
<feMorphology radius="10" operator="erode" in="SourceAlpha" result="effect1_dropShadow"/>
<feOffset dy="10"/>
<feGaussianBlur stdDeviation="12.5"/>
<feColorMatrix type="matrix" values="0 0 0 0 0 0 0 0 0 0 0 0 0 0 0 0 0 0 0.1 0"/>
<feBlend mode="normal" in2="BackgroundImageFix" result="effect1_dropShadow"/>
<feBlend mode="normal" in="SourceGraphic" in2="effect1_dropShadow" result="shape"/>
</filter>
<filter id="filter1_d" x="34.8801" y="27.8801" width="126.812" height="126.812" filterUnits="userSpaceOnUse" color-interpolation-filters="sRGB">
<feFlood flood-opacity="0" result="BackgroundImageFix"/>
<feColorMatrix in="SourceAlpha" type="matrix" values="0 0 0 0 0 0 0 0 0 0 0 0 0 0 0 0 0 0 127 0"/>
<feMorphology radius="10" operator="erode" in="SourceAlpha" result="effect1_dropShadow"/>
<feOffset dy="10"/>
<feGaussianBlur stdDeviation="12.5"/>
<feColorMatrix type="matrix" values="0 0 0 0 0 0 0 0 0 0 0 0 0 0 0 0 0 0 0.1 0"/>
<feBlend mode="normal" in2="BackgroundImageFix" result="effect1_dropShadow"/>
<feBlend mode="normal" in="SourceGraphic" in2="effect1_dropShadow" result="shape"/>
</filter>
<filter id="filter2_d" x="147.534" y="27" width="126.812" height="126.812" filterUnits="userSpaceOnUse" color-interpolation-filters="sRGB">
<feFlood flood-opacity="0" result="BackgroundImageFix"/>
<feColorMatrix in="SourceAlpha" type="matrix" values="0 0 0 0 0 0 0 0 0 0 0 0 0 0 0 0 0 0 127 0"/>
<feMorphology radius="10" operator="erode" in="SourceAlpha" result="effect1_dropShadow"/>
<feOffset dy="10"/>
<feGaussianBlur stdDeviation="12.5"/>
<feColorMatrix type="matrix" values="0 0 0 0 0 0 0 0 0 0 0 0 0 0 0 0 0 0 0.1 0"/>
<feBlend mode="normal" in2="BackgroundImageFix" result="effect1_dropShadow"/>
<feBlend mode="normal" in="SourceGraphic" in2="effect1_dropShadow" result="shape"/>
</filter>
<filter id="filter3_d" x="260.188" y="27.8801" width="126.812" height="126.812" filterUnits="userSpaceOnUse" color-interpolation-filters="sRGB">
<feFlood flood-opacity="0" result="BackgroundImageFix"/>
<feColorMatrix in="SourceAlpha" type="matrix" values="0 0 0 0 0 0 0 0 0 0 0 0 0 0 0 0 0 0 127 0"/>
<feMorphology radius="10" operator="erode" in="SourceAlpha" result="effect1_dropShadow"/>
<feOffset dy="10"/>
<feGaussianBlur stdDeviation="12.5"/>
<feColorMatrix type="matrix" values="0 0 0 0 0 0 0 0 0 0 0 0 0 0 0 0 0 0 0.1 0"/>
<feBlend mode="normal" in2="BackgroundImageFix" result="effect1_dropShadow"/>
<feBlend mode="normal" in="SourceGraphic" in2="effect1_dropShadow" result="shape"/>
</filter>
<filter id="filter4_d" x="94" y="142.294" width="126.812" height="126.812" filterUnits="userSpaceOnUse" color-interpolation-filters="sRGB">
<feFlood flood-opacity="0" result="BackgroundImageFix"/>
<feColorMatrix in="SourceAlpha" type="matrix" values="0 0 0 0 0 0 0 0 0 0 0 0 0 0 0 0 0 0 127 0"/>
<feMorphology radius="10" operator="erode" in="SourceAlpha" result="effect1_dropShadow"/>
<feOffset dy="10"/>
<feGaussianBlur stdDeviation="12.5"/>
<feColorMatrix type="matrix" values="0 0 0 0 0 0 0 0 0 0 0 0 0 0 0 0 0 0 0.1 0"/>
<feBlend mode="normal" in2="BackgroundImageFix" result="effect1_dropShadow"/>
<feBlend mode="normal" in="SourceGraphic" in2="effect1_dropShadow" result="shape"/>
</filter>
<filter id="filter5_d" x="206.654" y="141.414" width="126.812" height="126.812" filterUnits="userSpaceOnUse" color-interpolation-filters="sRGB">
<feFlood flood-opacity="0" result="BackgroundImageFix"/>
<feColorMatrix in="SourceAlpha" type="matrix" values="0 0 0 0 0 0 0 0 0 0 0 0 0 0 0 0 0 0 127 0"/>
<feMorphology radius="10" operator="erode" in="SourceAlpha" result="effect1_dropShadow"/>
<feOffset dy="10"/>
<feGaussianBlur stdDeviation="12.5"/>
<feColorMatrix type="matrix" values="0 0 0 0 0 0 0 0 0 0 0 0 0 0 0 0 0 0 0.1 0"/>
<feBlend mode="normal" in2="BackgroundImageFix" result="effect1_dropShadow"/>
<feBlend mode="normal" in="SourceGraphic" in2="effect1_dropShadow" result="shape"/>
</filter>
<filter id="filter6_d" x="319.308" y="143.174" width="126.812" height="126.812" filterUnits="userSpaceOnUse" color-interpolation-filters="sRGB">
<feFlood flood-opacity="0" result="BackgroundImageFix"/>
<feColorMatrix in="SourceAlpha" type="matrix" values="0 0 0 0 0 0 0 0 0 0 0 0 0 0 0 0 0 0 127 0"/>
<feMorphology radius="10" operator="erode" in="SourceAlpha" result="effect1_dropShadow"/>
<feOffset dy="10"/>
<feGaussianBlur stdDeviation="12.5"/>
<feColorMatrix type="matrix" values="0 0 0 0 0 0 0 0 0 0 0 0 0 0 0 0 0 0 0.1 0"/>
<feBlend mode="normal" in2="BackgroundImageFix" result="effect1_dropShadow"/>
<feBlend mode="normal" in="SourceGraphic" in2="effect1_dropShadow" result="shape"/>
</filter>
</defs>
</svg>
