<svg width="59" height="54" viewBox="0 0 59 54" fill="none" xmlns="http://www.w3.org/2000/svg">
<path d="M56.1705 51.0592C56.1705 43.6216 53.1609 39.9511 47.0126 36.145C43.0708 33.7049 38.2331 31.9573 33.6393 31.4353C30.2207 31.0468 26.7093 31.5496 23.3185 31.0574C16.4016 30.0533 10.396 25.0623 6.74719 19.3702C4.72884 16.2216 0.0300432 7.64543 2.90962 3.7292C19.823 5.9936 35.823 -5.50647 49.7745 11.4625C56.1705 23.4935 48.1647 35.571 49.3675 37.9766" stroke="#FCD34D" stroke-width="4" stroke-linecap="round" stroke-linejoin="round"/>
<path d="M46.9173 31.8668C46.1867 30.2205 45.3152 29.062 43.9813 27.8051C41.3666 25.3415 38.3114 23.2115 35.0021 21.7948C32.9831 20.9306 30.8513 20.4941 28.6693 20.3729" stroke="#FCD34D" stroke-width="4" stroke-linecap="round" stroke-linejoin="round"/>
<path d="M39.4522 22.5058C39.4522 18.99 37.2549 15.7476 34.594 13.6188" stroke="#FCD34D" stroke-width="4" stroke-linecap="round" stroke-linejoin="round"/>
</svg>
