<svg width="65" height="69" viewBox="0 0 65 69" fill="none" xmlns="http://www.w3.org/2000/svg">
<path d="M4 30.203C4 22.2097 5.64966 14.1714 11.7748 8.68153C16.6531 4.30916 22.2565 3.44846 28.4171 2.34413C34.1793 1.3112 39.1372 2.67792 44.1726 5.44849C48.7399 7.96154 52.8026 11.3806 54.956 16.2414C56.6308 20.022 58.1546 24.6046 58.1546 28.8036C58.1546 29.1383 58.3835 30.7103 58.1546 30.9429C57.8377 31.2648 57.7258 30.1371 57.442 29.7848C56.4053 28.4977 55.2374 27.2825 54.1009 26.0853C53.5256 25.4792 52.126 24.0792 53.5942 25.5706C54.6753 26.6687 56.2372 28.1708 56.8561 29.6078C57.3496 30.7536 57.3867 31.5927 58.0279 29.9939C59.3797 26.6235 60.7423 22.9363 63 20.0696" stroke="#FCD34D" stroke-width="4" stroke-linecap="round" stroke-linejoin="round"/>
<path d="M58.8398 38C58.8398 41.1909 59.2907 44.8256 58.6795 47.9384C58.3929 49.3977 58.001 50.7751 57.461 52.1614C51.2915 68 32.5 66.6897 25.9406 65.7195C10.9339 63.5 7.87857 53.0737 6.6051 49.4307C5.66635 46.7453 4.76399 38.3072 4.58497 41.1435C4.46141 43.1012 3.22832 45.3367 2.43658 47.1287C2.23899 47.5759 1.73116 48.2533 2.18006 47.2398C2.75121 45.9503 3.73079 44.8022 4.23225 43.4931C4.92176 41.6931 5.77678 42.4241 7.4869 43.0168C8.23263 43.2753 10.5843 43.5944 10.9339 44.2869" stroke="#FCD34D" stroke-width="4" stroke-linecap="round" stroke-linejoin="round"/>
<path d="M27.2962 30.369C27.2962 34.46 27.2962 38.551 27.2962 42.642C27.2962 44.0214 27.2793 45.3973 27.5091 46.7634C27.5872 47.2279 27.661 47.2011 28.1174 47.2044C30.4546 47.2216 32.7919 47.1884 35.1284 47.136C37.0551 47.0928 38.9804 47.0676 40.9075 47.0676C41.2267 47.0676 43.8502 47.3112 44.0252 46.9611C44.2112 46.5891 44.0756 46.13 44.0708 45.714C44.056 44.4241 43.9956 43.1052 43.9035 41.8207C43.6678 38.5324 43.3351 35.2168 42.8846 31.9506C42.8105 31.4138 42.305 25.8842 41.4094 26.0194C36.9642 26.6904 32.466 27.8314 28.2543 29.4108" stroke="#FCD34D" stroke-width="4" stroke-linecap="round" stroke-linejoin="round"/>
<path d="M27.2962 30.232C25.5985 29.2748 24.0236 28.2065 22.6501 26.833C22.5474 26.7303 22.3738 26.7154 22.5056 26.6429C23.0642 26.3357 23.5421 25.8926 24.0873 25.5631C25.9862 24.4154 28.127 23.7547 30.201 23.0081C32.0431 22.3449 33.8854 21.544 35.7824 21.0463C36.5872 20.8351 37.0069 21.3912 37.6378 21.8219C39.0607 22.7933 41.3942 24.917 41.3942 26.8102" stroke="#FCD34D" stroke-width="4" stroke-linecap="round" stroke-linejoin="round"/>
<path d="M21.8212 26.947C21.8154 28.0876 21.872 29.2631 21.73 30.3993C21.6235 31.2513 21.3438 32.0782 21.2205 32.9315C21.039 34.1883 21 35.4279 21 36.6955C21 38.4396 21.1369 40.2212 21.1369 41.9423C21.1369 43.5606 21.6221 43.9737 23.0227 44.9155C24.2406 45.7344 25.265 46.5465 26.7487 46.7937" stroke="#FCD34D" stroke-width="4" stroke-linecap="round" stroke-linejoin="round"/>
</svg>
