<svg width="160" height="203" viewBox="0 0 160 203" fill="none" xmlns="http://www.w3.org/2000/svg">
<path d="M73.7887 97.237C68.4722 89.273 51.7185 91.6832 50.4197 101.453" stroke="#FCD34D" stroke-width="4" stroke-linecap="round" stroke-linejoin="round"/>
<path d="M92.9003 99.7975C98.2168 91.8335 114.97 94.2437 116.269 104.013" stroke="#FCD34D" stroke-width="4" stroke-linecap="round" stroke-linejoin="round"/>
<path d="M37.5 125.901C40.0132 144.889 55.4358 169.534 79 170.5C106.533 171.629 122.93 148.584 127 125.901" stroke="#FCD34D" stroke-width="4" stroke-linecap="round" stroke-linejoin="round"/>
<path d="M100.514 41.122C74.2881 40.1403 46.2288 45.5073 26.154 63.7316C5.35135 82.6167 0.56703 111.351 2.33856 138.193C3.70276 158.862 14.8322 178.912 32.3842 190.345C42.4104 196.876 54.5755 199.017 66.2483 200.093C84.6304 201.786 101.03 199.572 117.748 191.752C156.494 173.629 164.257 124.315 153.22 86.4417C148.526 70.336 138.079 59.0038 124.179 49.8644C108.8 39.7524 91.9125 40.7024 74.2873 41.122" stroke="#FCD34D" stroke-width="4" stroke-linecap="round" stroke-linejoin="round"/>
<path d="M84.9433 2C80.6453 11.8101 76.476 21.6133 73.2617 31.8447C72.387 34.629 69.7427 42.9055 71.1264 40.3358C72.6218 37.5586 74.531 34.9724 76.9169 32.8872C77.4811 32.3942 81.4914 28.9249 82.0543 30.6137C82.4642 31.8435 82.6044 33.4643 82.6698 34.7713C82.7294 35.9642 82.65 36.0845 83.9636 35.3868C87.7383 33.382 91.3023 31.5421 95.6201 31.0533C96.2038 30.9872 98.1963 30.6275 98.7352 31.1664" stroke="#FCD34D" stroke-width="4" stroke-linecap="round" stroke-linejoin="round"/>
</svg>
