<svg width="65" height="67" viewBox="0 0 65 67" fill="none" xmlns="http://www.w3.org/2000/svg">
<path d="M17.1346 26.2192C23.8612 11.7903 46.2598 13.7024 50.0839 28.9989C51.5934 38.2003 49.227 56.0538 27.6854 53.8559C24.9032 53.2995 21.3263 51.9115 19.3109 49.8961C13.029 43.6142 13.5465 33.9157 17.1346 26.2192Z" stroke="#FCD34D" stroke-width="4" stroke-linecap="round" stroke-linejoin="round"/>
<path d="M25.6873 10.2292C25.5321 8.09428 25.0673 6.02183 24.6352 3.92892C24.5018 3.28268 24.3346 2.65844 24.3346 2" stroke="#FCD34D" stroke-width="4" stroke-linecap="round" stroke-linejoin="round"/>
<path d="M41.6948 10.6802C41.8192 8.86429 42.2356 7.06009 42.9349 5.3819" stroke="#FCD34D" stroke-width="4" stroke-linecap="round" stroke-linejoin="round"/>
<path d="M51.8404 16.3166C53.8622 14.7756 55.8455 13.1887 57.8151 11.582" stroke="#FCD34D" stroke-width="4" stroke-linecap="round" stroke-linejoin="round"/>
<path d="M8.32758 12.8253C9.47846 13.0284 10.8165 13.7192 11.6024 14.6076C12.0452 15.1081 13.0489 15.5029 13.212 16.1556" stroke="#FCD34D" stroke-width="4" stroke-linecap="round" stroke-linejoin="round"/>
<path d="M2 28.2556C4.88626 28.2556 7.77253 28.2556 10.6588 28.2556" stroke="#FCD34D" stroke-width="4" stroke-linecap="round" stroke-linejoin="round"/>
<path d="M4.88626 43.9081C6.35906 43.7026 7.68049 43.0828 9.10465 42.798" stroke="#FCD34D" stroke-width="4" stroke-linecap="round" stroke-linejoin="round"/>
<path d="M9.54869 58.0063C10.2528 56.4887 10.9434 55.4265 12.1513 54.269C12.5924 53.8463 13.3445 53.2794 13.5451 52.6779" stroke="#FCD34D" stroke-width="4" stroke-linecap="round" stroke-linejoin="round"/>
<path d="M21.6488 64.667C21.6488 62.8638 21.4859 60.6929 22.5369 59.1165" stroke="#FCD34D" stroke-width="4" stroke-linecap="round" stroke-linejoin="round"/>
<path d="M38.7444 59.2275C38.8968 60.8168 39.4329 62.3894 40.1381 63.8159C40.3316 64.2073 40.6053 64.5883 40.7425 65" stroke="#FCD34D" stroke-width="4" stroke-linecap="round" stroke-linejoin="round"/>
<path d="M48.1802 53.2328C50.4054 54.5354 52.2473 56.5276 54.1748 58.2283" stroke="#FCD34D" stroke-width="4" stroke-linecap="round" stroke-linejoin="round"/>
<path d="M54.6188 39.0236C57.32 39.0236 60.0213 39.0236 62.7225 39.0236" stroke="#FCD34D" stroke-width="4" stroke-linecap="round" stroke-linejoin="round"/>
<path d="M56.284 26.2574C58.0252 26.1589 59.8123 25.5696 61.5014 25.1473" stroke="#FCD34D" stroke-width="4" stroke-linecap="round" stroke-linejoin="round"/>
</svg>
