<?xml version="1.0" standalone="no"?>
<!DOCTYPE svg PUBLIC "-//W3C//DTD SVG 20010904//EN"
 "http://www.w3.org/TR/2001/REC-SVG-20010904/DTD/svg10.dtd">
<svg version="1.0" xmlns="http://www.w3.org/2000/svg"
 width="552.000000pt" height="552.000000pt" viewBox="0 0 552.000000 552.000000"
 preserveAspectRatio="xMidYMid meet">
<metadata>
Created by potrace 1.11, written by Peter Selinger 2001-2013
</metadata>
<g transform="translate(0.000000,552.000000) scale(0.100000,-0.100000)"
fill="#000000" stroke="none">
<path d="M435 5477 c-38 -11 -73 -25 -76 -30 -3 -5 -9 -8 -13 -8 -22 4 -136
-75 -184 -129 -67 -73 -124 -181 -148 -278 -19 -83 -20 -4086 0 -4178 13 -63
73 -204 87 -204 4 0 10 -8 14 -19 9 -29 108 -123 169 -160 31 -18 87 -45 124
-60 l67 -26 1710 -3 1710 -2 65 -68 c86 -87 113 -110 185 -155 152 -93 317
-138 490 -133 134 4 167 10 264 42 66 22 207 88 221 104 3 3 22 18 43 33 46
35 131 118 173 171 71 88 152 274 171 393 14 90 8 290 -11 358 -1 6 -6 26 -10
45 -10 47 -109 247 -143 290 -45 55 -159 166 -191 186 -22 12 -31 26 -34 51
-2 19 -1 36 3 39 4 2 4 17 -1 33 -4 15 -4 34 0 41 4 7 4 25 0 40 -4 15 -4 33
0 40 5 7 5 23 0 34 -4 12 -4 30 0 41 4 11 4 34 -1 52 -4 18 -3 35 1 38 5 3 5
18 0 34 -4 15 -4 34 0 41 4 7 4 25 0 40 -4 15 -4 33 0 40 5 7 5 23 0 34 -4 12
-4 30 0 41 4 11 4 34 -1 52 -4 18 -3 35 1 38 5 3 5 18 0 34 -4 15 -4 34 0 41
4 7 4 25 0 40 -4 15 -4 33 0 40 5 7 5 23 0 34 -4 12 -4 30 0 41 4 11 4 34 -1
52 -4 18 -3 35 1 38 5 3 5 18 0 34 -4 15 -4 34 0 41 4 7 4 25 0 40 -4 15 -4
33 0 40 5 7 5 23 0 34 -4 12 -4 30 0 41 4 11 4 34 -1 52 -4 18 -3 35 1 38 5 3
5 18 0 34 -4 15 -4 34 0 41 4 7 4 25 0 40 -4 15 -4 33 0 40 5 7 5 23 0 34 -4
12 -4 30 0 41 4 11 4 34 -1 52 -4 18 -3 35 1 38 5 3 5 18 0 34 -4 15 -4 34 0
41 4 7 4 25 0 40 -4 15 -4 33 0 40 5 7 5 23 0 34 -4 12 -4 30 0 41 4 11 4 34
-1 52 -4 18 -3 35 1 38 5 3 5 18 0 34 -4 15 -4 34 0 41 4 7 4 25 0 40 -4 15
-4 33 0 40 5 7 5 23 0 34 -4 12 -4 30 0 41 4 11 4 34 -1 52 -4 18 -3 35 1 38
5 3 5 18 0 34 -4 15 -4 34 0 41 4 7 4 25 0 40 -4 15 -4 33 0 40 5 7 5 23 0 34
-4 12 -4 30 0 41 4 11 4 34 -1 52 -4 18 -3 35 1 38 5 3 5 18 0 34 -4 15 -4 34
0 41 4 7 4 25 0 40 -4 15 -4 33 0 40 5 7 5 23 0 34 -4 12 -4 30 0 41 4 11 4
34 -1 52 -4 18 -3 35 1 38 5 3 5 18 0 34 -4 15 -4 34 0 41 4 7 4 25 0 40 -4
15 -4 33 0 40 5 7 5 23 0 34 -4 12 -4 30 0 41 4 11 6 25 4 30 -2 6 -6 39 -8
75 -17 238 -197 462 -423 525 -12 3 -32 9 -45 13 -13 4 -950 8 -2083 8 -2060
2 -2060 2 -2130 -19z"/>
</g>
</svg>
